<?xml version="1.0" encoding="UTF-8" standalone="no"?>
<!-- Created with Inkscape (http://www.inkscape.org/) -->

<svg
   width="1024"
   height="1024"
   viewBox="0 0 1024 1024"
   version="1.1"
   id="svg1"
   xml:space="preserve"
   inkscape:version="1.4.2 (f4327f4, 2025-05-13)"
   sodipodi:docname="Logo.svg"
   xmlns:inkscape="http://www.inkscape.org/namespaces/inkscape"
   xmlns:sodipodi="http://sodipodi.sourceforge.net/DTD/sodipodi-0.dtd"
   xmlns="http://www.w3.org/2000/svg"
   xmlns:svg="http://www.w3.org/2000/svg"><sodipodi:namedview
     id="namedview1"
     pagecolor="#505050"
     bordercolor="#eeeeee"
     borderopacity="1"
     inkscape:showpageshadow="0"
     inkscape:pageopacity="0"
     inkscape:pagecheckerboard="0"
     inkscape:deskcolor="#505050"
     inkscape:document-units="mm"
     inkscape:zoom="0.51981271"
     inkscape:cx="368.40192"
     inkscape:cy="739.68949"
     inkscape:window-width="2560"
     inkscape:window-height="1369"
     inkscape:window-x="-8"
     inkscape:window-y="-8"
     inkscape:window-maximized="1"
     inkscape:current-layer="layer1" /><defs
     id="defs1" /><g
     inkscape:label="Capa 1"
     inkscape:groupmode="layer"
     id="layer1"><path
       style="fill:#9978c8;stroke:none;stroke-width:6.2067"
       d="M 190.77059,430.78716 C 95.249991,463.31323 52.142019,588.29128 56.175722,680.39994 c 0.887206,20.25923 3.262882,40.98539 7.956267,60.76099 2.314434,9.75184 9.817501,22.90886 8.986427,32.8438 -0.99027,11.8381 -18.619366,26.28165 -23.797812,37.77038 -18.486695,41.01393 -17.546492,89.86903 13.644335,124.80636 50.144301,56.16742 139.058921,56.94977 204.988561,32.14551 20.3057,-7.63942 37.85014,-26.40506 57.47662,-32.52821 10.45898,-3.26312 20.58119,5.70557 29.55941,9.47304 19.90182,8.35129 39.89215,3.38525 50.90787,-15.65914 h 1.64219 c 21.90744,33.02765 58.67094,29.55941 93.60476,29.55941 71.54005,0 145.55644,5.38883 216.76895,-1.25568 34.73939,-3.24139 63.75111,-0.4953 87.81021,-31.58806 25.31091,-32.71067 19.39109,-85.69355 22.06953,-124.80636 0.68783,-10.04301 -3.21271,-39.40498 4.4222,-46.41855 5.36298,-4.92639 18.58418,-2.84713 25.28418,-2.84713 10.91094,0 25.78816,-2.59702 36.12814,1.21253 16.59481,6.11435 26.50777,17.88659 45.98129,11.83494 36.09254,-11.21625 39.01722,-71.04997 -1.64216,-78.19523 -16.36465,-2.87581 -34.51175,1.53602 -44.1605,15.90609 -3.96528,5.90555 -4.48167,17.37269 -10.52973,21.2788 -10.62208,6.86033 -37.89574,1.68779 -50.40988,1.68779 0.0186,-23.53239 6.89099,-48.91047 2.51651,-72.25629 -6.53137,-34.85676 -45.18347,-67.45907 -76.41503,-80.44826 -29.00888,-12.0647 -64.31363,-9.87219 -95.24701,-9.87219 -10.38866,0 -33.23484,4.29572 -41.98604,-1.68778 -6.31059,-4.31471 -12.78171,-33.37088 -12.47608,-40.98377 0.3724,-9.26958 14.75284,-13.39648 21.61837,-16.85399 22.17654,-11.16803 43.17995,-26.43619 60.76098,-43.93369 17.23861,-17.15655 32.2062,-36.02969 43.83228,-57.47528 5.51601,-10.175 8.4982,-25.49501 16.12407,-34.02984 5.56995,-6.23376 16.41709,-8.09937 23.79531,-11.59163 13.49732,-6.38856 26.34719,-14.44634 37.77037,-24.07144 43.36745,-36.54127 68.83671,-94.59729 74.02135,-150.36046 1.90384,-20.47605 3.5362,-43.1177 -9.63008,-60.69515 -28.43219,-37.957987 -96.7226,-25.770853 -133.36322,-10.16475 -9.98665,4.25351 -32.56494,22.08746 -42.69695,20.39556 -7.6737,-1.28146 -15.35561,-12.36804 -21.34843,-17.05425 C 664.66819,103.19719 648.36586,92.095276 630.8773,83.067542 573.53087,53.46503 510.07475,37.174838 445.30992,40.010788 388.99626,42.476679 333.60614,58.232935 284.3754,85.700616 c -16.0749,8.968801 -31.83125,19.532574 -45.98131,31.297914 -5.33301,4.43423 -13.72812,15.8158 -20.65155,16.95402 -4.29321,0.70583 -8.99947,-4.4224 -12.19349,-6.6333 -9.26448,-6.41281 -19.20492,-12.3053 -29.55816,-16.75767 C 143.46966,96.576006 107.44908,88.847981 72.532964,98.648092 33.444977,109.61911 21.247505,143.89869 26.08918,181.1744 c 6.801862,52.36724 28.5754,102.86428 67.792248,139.43911 10.426802,9.72436 21.961382,19.02696 34.485982,25.91012 8.12465,4.4651 20.62791,7.64033 26.99223,14.468 6.47403,6.9453 8.78161,21.59491 12.43936,30.38304 5.87134,14.1064 14.46015,26.79569 22.97159,39.41249 m 564.91307,-96.88913 c 4.66166,-19.58053 4.14956,-41.03443 0.63228,-60.76105 -2.07266,-11.62428 -8.22972,-24.24031 -6.8905,-36.12815 4.04162,-35.87767 44.68521,-53.08519 73.52214,-63.27751 6.62977,-2.34329 13.40121,-12.29767 3.2527,-15.25359 -43.04614,-12.53773 -94.21727,31.29842 -103.74691,70.32016 -3.94969,16.17352 8.36061,37.44531 9.96089,54.19223 3.37718,35.34256 -2.61924,73.55262 -19.24499,105.10015 -52.14553,98.94628 -172.89763,134.25786 -277.71248,129.66826 -108.31927,-4.74303 -232.52558,-59.66203 -256.1752,-175.6496 -4.79953,-23.53873 -4.88046,-48.65065 -0.32691,-72.25628 2.29997,-11.92304 11.5255,-27.48837 9.75812,-39.41256 -5.82003,-39.26722 -58.32212,-85.89189 -99.72627,-75.0187 -9.464629,2.48553 -7.476499,11.51857 0,15.18904 13.19736,6.47905 26.83753,6.12684 39.38088,15.36636 15.30526,11.27401 31.56006,31.38962 33.88533,51.03204 1.4076,11.89065 -6.2834,24.59635 -8.49604,36.12815 -3.42527,17.85152 -2.39864,36.10841 -2.39864,54.19225 C 101.62017,301.13149 66.850512,251.19336 56.539362,195.95411 53.844841,181.5188 49.282625,152.738 58.597161,140.19064 c 8.842109,-11.91087 25.042033,-13.76896 38.568651,-15.54506 38.443098,-5.04765 99.909738,20.10198 116.595438,56.52882 12.37897,-8.79278 21.83074,-22.25255 32.84379,-32.77912 14.53138,-13.88945 31.85271,-25.52461 49.26567,-35.4908 89.11488,-51.004177 203.74587,-55.401132 297.23621,-14.066351 26.02364,11.505741 51.02937,27.552971 72.25635,46.480541 8.52187,7.59874 21.01298,27.07739 31.6705,30.38562 8.70054,2.70084 31.05522,-20.75609 38.94363,-25.62503 28.63176,-17.67198 86.27536,-38.0484 116.37623,-12.32905 13.23095,11.30498 7.18996,44.67499 4.44883,59.84609 -7.51774,41.60821 -26.41694,80.38389 -56.77968,110.00263 -11.43449,11.15425 -27.91662,24.6079 -44.33912,26.2991 M 321.67692,165.70411 c -23.72239,1.74012 -45.16593,7.10701 -65.21874,20.54389 -74.84301,50.15033 -72.74732,171.23082 11.49532,211.16951 19.72417,9.35107 40.78636,11.74718 62.40319,10.23207 123.70784,-8.67045 150.83208,-194.55883 32.84378,-235.7619 -12.96059,-4.52604 -27.74561,-7.1942 -41.52355,-6.18357 m 256.6503,1.39381 c -26.08497,3.1163 -49.83335,8.78929 -70.61413,26.10654 -91.22011,76.01678 -26.53712,228.67527 91.96263,214.12199 59.51549,-7.30926 106.45439,-60.83049 105.07602,-121.05193 -1.41898,-61.99385 -60.9863,-126.99423 -126.42452,-119.1766 M 312.2926,189.86055 c 13.89086,-1.80517 29.32111,-0.76738 42.69693,3.38071 98.11593,30.4277 88.35814,182.90434 -14.77971,197.64048 -14.92748,2.1328 -31.53717,1.03304 -45.98129,-3.0462 C 190.08165,358.423 208.78727,203.31149 312.2926,189.86055 m 266.03462,0.46259 c 105.59105,0 143.48431,151.1344 42.69695,193.4716 -13.0332,5.47475 -28.49874,9.09282 -42.69695,9.09282 -105.63472,0 -139.88651,-149.46701 -42.69689,-193.81253 13.22462,-6.03413 28.20716,-8.75189 42.69689,-8.75189 m -257.82366,42.46367 c -11.70532,1.62415 -23.1414,5.12914 -32.84379,12.08579 -56.38611,40.42921 -14.15215,126.81298 50.90787,116.45482 78.62653,-12.51823 60.38517,-139.42573 -18.06408,-128.54062 m 239.75962,1.78793 c -86.46763,18.33641 -53.503,146.9059 31.20158,127.7663 83.80485,-18.93626 51.43027,-145.28934 -31.20158,-127.7663 m 26.27501,22.85372 c 22.30167,-4.00414 30.09592,31.34793 8.20464,36.40948 -25.52692,5.90227 -33.71001,-31.83012 -8.20464,-36.40948 m -247.97055,1.58263 c 23.6596,-5.1233 31.82116,31.33174 8.20969,36.46276 -23.93729,5.20188 -32.26831,-31.25303 -8.20969,-36.46276 m 592.83031,49.33284 c -33.15602,5.16764 -52.12629,42.42019 -33.56728,71.52905 6.11608,9.59289 21.90111,13.90706 26.00758,23.34668 2.02071,4.64504 0.9909,11.12882 0.9909,16.07221 0,12.93413 5.27029,40.80427 -5.30164,50.19575 -21.67107,19.25131 -45.13575,-21.00248 -58.74375,-31.48418 -13.42857,-10.34334 -38.1038,-5.57405 -54.19225,-5.57405 -6.35646,0 -13.83753,-0.99934 -19.70627,1.93618 -10.35787,5.18092 -21.16181,18.49497 -9.50208,27.94375 9.22725,7.47757 15.19263,-0.16573 24.28179,-2.76739 9.25666,-2.64988 26.7814,-2.65882 36.12821,-0.3153 16.3588,4.10127 27.45402,26.83995 41.05469,36.17643 10.86247,7.45667 31.95006,5.70477 44.33913,3.01062 43.83772,-9.53287 20.43494,-64.22046 28.43926,-93.81127 3.02741,-11.19211 22.57347,-17.57844 28.37592,-29.64941 15.61091,-32.47525 -12.69009,-72.20633 -48.60421,-66.60882 m 3.28434,26.16106 c 25.27401,-3.32457 32.24086,36.38348 6.5688,40.09043 -26.61707,3.84351 -33.50414,-36.54734 -6.5688,-40.09043 m -515.46872,38.38359 c -15.25205,6.44138 -2.75075,33.40917 12.86258,27.34188 15.23021,-5.91846 3.24495,-34.1446 -12.86258,-27.34188 m 47.45242,1.64862 c -13.78061,5.09534 -14.01361,29.08199 3.27049,23.09711 14.55636,-5.04033 13.60443,-29.33664 -3.27049,-23.09711 m 24.6189,52.9112 c -6.89193,0.38791 -12.23043,7.39658 -18.05774,10.44357 -9.93296,5.19382 -21.78856,6.69839 -32.8438,5.88451 -12.88587,-0.9487 -34.40858,-19.26746 -45.73672,-12.68898 -10.04693,5.83442 0.73115,16.3127 6.38886,20.55398 13.08633,9.81025 32.92715,14.82811 49.20099,13.35161 15.33831,-1.39161 32.13714,-5.07075 44.16677,-15.36885 7.09407,-6.07289 11.7727,-23.01401 -3.11836,-22.17584 m 96.89546,137.99832 c -47.95167,0 -100.35898,-3.67431 -136.15343,34.49225 -11.89787,12.68637 -17.82489,27.95621 -26.42326,42.69061 -26.18377,-5.41889 -51.11173,-19.78174 -70.61413,-37.91729 -8.80737,-8.19011 -21.59949,-29.62334 -34.47836,-30.77207 -9.76057,-0.87061 -9.86205,10.1634 -6.33812,16.13934 8.49149,14.39973 21.63983,27.90768 34.24772,38.70932 22.07258,18.91033 48.42444,35.46323 77.18289,41.73385 20.06742,4.3756 43.3547,1.15016 62.40316,9.02696 14.95288,6.18318 26.5221,22.37063 22.99066,38.62063 -7.98813,-2.07745 -13.2503,-7.39589 -19.70626,-12.31141 -2.16844,-1.65092 -28.55898,-16.77274 -24.29324,-4.35754 1.30534,3.7988 6.50363,5.83553 9.44768,8.10445 6.61753,5.10011 24.04538,30.08171 9.54393,36.19282 -5.53769,2.33359 -10.99527,-4.62027 -14.40462,-7.92329 -7.52066,-7.28623 -15.04218,-16.20916 -26.27505,-14.77847 l 14.77969,27.91719 c -25.00914,10.48399 -35.53727,-22.68735 -54.19221,-32.99966 -17.9143,-9.90291 -39.53178,-10.93913 -59.11882,-15.32204 -29.3595,-6.56973 -59.18331,-17.33258 -83.75164,-35.01305 -12.95335,-9.32185 -24.90106,-21.06927 -33.04776,-34.90287 -3.53416,-6.00127 -7.75114,-16.6398 -16.19387,-16.6398 -23.97353,0 1.52837,38.38309 6.1975,44.55703 2.18534,2.88965 7.22006,8.12965 4.99122,12.15303 -2.42595,4.37914 -14.94069,4.96604 -19.42372,6.63204 -13.83674,5.14151 -37.13805,18.99753 -39.35932,35.37552 -1.45527,10.72996 9.90013,6.33616 14.72647,2.90418 45.74146,-32.52727 128.17031,-29.47835 145.8951,34.89785 8.87183,32.22233 -5.1358,62.28157 -27.68151,85.39382 -5.30701,5.44035 -34.79254,25.0001 -31.30684,32.60684 4.57193,9.9772 23.0403,2.05734 29.68869,-1.04664 24.95825,-11.65259 51.5932,-22.10491 78.82508,-10.4082 15.79766,6.78547 29.28808,21.80699 22.99066,39.60899 -20.77845,-8.03613 -32.45554,-28.94489 -57.47662,-22.99068 9.20082,11.16301 49.41756,21.48102 40.03847,43.96281 -2.12013,5.08197 -7.85361,4.86828 -12.12125,2.88654 -13.0885,-6.07797 -21.20479,-14.07599 -36.12817,-16.86162 C 278.82864,895.57691 226.42167,896.24872 177.63309,864.82084 45.56022,779.74413 50.856146,536.64999 190.77059,460.8537 c 5.72868,-3.10346 12.98227,-7.97969 19.70628,-5.46381 11.99363,4.48756 22.43092,18.49317 32.84378,26.05573 19.30887,14.02334 40.46348,24.99226 62.4032,34.26936 60.53703,25.59785 130.5015,32.69106 195.4205,26.46257 23.29965,-2.23547 47.56102,-12.98027 70.5432,-13.49604 12.51016,-0.28053 16.08937,27.50834 16.4928,36.76545 m 128.18076,-51.33108 c -11.41033,4.71319 -8.70824,19.53217 1.57757,23.58875 27.01633,10.65479 62.63584,-9.27368 90.29506,1.29236 24.80992,9.47769 35.38041,43.84617 59.11881,55.71536 15.50198,7.75099 39.23995,-5.45475 53.73607,3.62398 5.6633,3.54681 7.06142,12.80727 11.18361,17.95263 10.61251,13.24676 31.47537,17.55894 46.74921,9.91911 26.58616,-13.29829 26.46806,-54.27747 0,-67.8481 -22.61072,-11.5928 -31.91937,4.05316 -50.9079,11.02266 -10.1865,3.73879 -33.89064,3.1368 -44.33911,0.27868 -22.38385,-6.12291 -37.27768,-39.30622 -55.83442,-52.53996 -8.11191,-5.78502 -18.47102,-4.22452 -27.91723,-4.22452 h -57.47666 c -7.92043,0 -18.73416,-1.85861 -26.18501,1.21898 m 242.97944,66.89507 c 14.73131,-3.21407 19.3349,19.4863 4.83021,22.59785 -13.85856,2.97295 -19.56236,-19.38352 -4.83021,-22.59785 M 519.2084,592.19201 c 53.63886,-6.59115 111.78795,-0.46986 165.86115,-0.46986 19.17615,0 46.307,-5.07422 60.11982,11.56632 13.2173,15.92303 5.99773,43.49977 4.2043,62.3322 -4.41842,46.39689 -5.13586,93.29545 -10.6008,139.58607 -2.8233,23.91448 -7.90981,44.77239 -35.65929,48.77274 -54.5899,7.86979 -115.58779,0.49282 -170.78764,0.49282 -19.59903,0 -48.5886,5.37809 -65.68622,-6.07965 -19.95665,-13.37364 -17.57439,-48.42361 -10.98096,-69.08721 3.692,-11.57047 26.67804,-7.46853 35.61246,-11.01392 13.09577,-5.19668 16.53924,-15.391 25.40452,-24.87228 5.58937,-5.9778 12.59252,-9.47392 16.5663,-17.03771 12.66912,-24.1147 -7.87699,-55.29815 -28.83336,-66.81525 -6.34713,-3.48822 -22.13705,-4.5086 -26.22937,-9.7151 -3.10767,-3.95373 -1.83625,-12.38086 -1.62318,-17.07443 1.12472,-24.77685 19.64023,-37.75939 42.63227,-40.58462 m 262.75028,32.3737 c 8.76875,8.76871 20.01642,17.57813 24.41367,29.55942 9.68394,26.38586 -1.7948,66.06659 -3.00056,93.60478 -1.55955,35.61783 -5.00993,71.14256 -6.56873,106.74227 -1.06346,24.28662 -1.27537,51.64997 -23.07938,67.67698 -21.99641,16.1684 -53.14592,11.1481 -78.801,11.1481 H 517.56623 c -23.52849,0 -59.24638,6.76524 -78.67176,-9.33352 C 417.55178,906.2757 423.96146,864.718 423.96146,839.69228 h 1.6422 c 9.3207,19.57897 23.89702,35.48426 45.98131,40.20446 27.46965,5.87116 56.0924,0.85025 83.75163,0.85025 43.71113,0 89.62296,3.94672 133.01729,-1.17325 27.09937,-3.19751 49.86368,-4.31166 66.42887,-30.02831 13.46072,-20.89704 12.51283,-48.39309 14.18535,-72.2563 2.21871,-31.65528 7.25067,-63.52619 8.03998,-95.24703 0.41088,-16.5203 -1.38683,-42.37424 4.95059,-57.47658 M 614.45542,751.01406 c 10.66958,12.54926 18.40802,37.28612 32.99712,45.23121 10.13225,5.51793 28.34891,0.0639 24.98382,-14.02957 -4.7781,-20.01158 -32.69993,-35.37545 -34.40485,-55.83448 -1.56161,-18.73946 31.42601,-35.44789 35.08524,-54.19225 2.85669,-14.63347 -11.40202,-23.4713 -24.11074,-17.12391 -12.59823,6.29223 -26.62214,29.44204 -32.90842,41.75676 -8.45452,-12.54275 -16.26534,-33.0191 -29.62408,-40.90649 -10.91888,-6.44679 -26.03412,1.00032 -23.85601,14.63147 3.02018,18.90058 29.86608,33.98225 30.05222,52.55009 0.21476,21.40057 -35.96517,37.10358 -38.59395,59.11881 -1.60362,13.42918 13.19738,20.14074 24.22743,14.48569 13.40263,-6.87143 29.53693,-32.40685 36.15222,-45.68733 m 310.38006,-38.69907 c 19.17082,-3.48053 24.37724,25.49445 4.91892,28.44555 -18.92335,2.8699 -23.81814,-25.01444 -4.91892,-28.44555 M 396.04427,841.33445 c -18.92037,-7.86675 -33.63792,-11.4953 -54.19225,-11.4953 10.58086,-38.68574 14.86685,-62.72423 1.64219,-101.8157 l 1.64218,-1.64223 c 15.45867,3.72303 32.86048,3.76287 45.95724,14.01187 26.52871,20.76037 11.59039,73.12982 4.95064,100.94136 M 88.954862,805.20631 c 5.631689,10.69209 19.709128,24.50988 21.529678,36.12814 0.98708,6.29938 -3.08943,13.28079 -3.3997,19.70628 -0.89221,18.47616 6.98732,36.56851 21.30662,48.49784 37.91849,31.58981 81.86515,10.6803 124.78235,15.27512 9.83203,1.05266 22.61502,0.0559 31.20159,5.19898 -49.76434,29.04561 -122.28729,38.83679 -174.07207,9.14862 C 67.461577,914.60026 43.064926,841.22081 88.954862,805.20631 m 44.339108,59.11881 67.32977,41.05471 c -21.35424,14.58866 -79.82058,-11.00739 -67.32977,-41.05471"
       id="path1"
       sodipodi:nodetypes="cssssssssccsssssscsssscsssscssssssssssssssssssssssssccsssssssssssssssscssscssssscssscccscscccsscccssccsssccssccsccsccsccssssssssccssssccsccsccsccssssssccscsssssscsssssccssssssscscsssssccssssssssssccssssssssssssccsccssssssssssssssccsssssscccssssssccssssscsssssccscccccsccsssscscccc"
       inkscape:label="Mono" /><path
       style="fill:#f5e3f3;fill-opacity:1;stroke-width:1.36245"
       d="M 420.336,516.11074 C 389.53618,513.4573 349.92358,504.36228 322.97415,493.75653 261.74182,469.65903 219.3329,433.89231 195.5708,386.30749 182.8832,360.8999 178.21136,342.13986 177.2272,312.64757 c -0.87472,-26.21231 0.63663,-38.41203 7.15737,-57.77482 2.99321,-8.8881 4.69861,-16.54825 4.69861,-21.10471 0,-15.74451 -11.67501,-36.82809 -29.76515,-53.75206 -12.18692,-11.4013 -22.09054,-17.73503 -35.13425,-22.46964 -24.0693,-8.73668 -49.210456,-3.25225 -40.298515,8.79094 3.355094,4.53393 7.439446,6.60153 19.994265,10.12164 16.47058,4.618 23.81046,8.85675 35.10464,20.27277 7.84491,7.92953 11.82129,13.35368 16.02096,21.85409 8.01067,16.21417 8.26554,21.29536 2.03407,40.5534 -4.93917,15.26428 -5.07779,16.26199 -5.717,41.1494 -0.3603,14.0282 -0.94667,25.50583 -1.30305,25.50583 -1.8891,0 -24.07094,-15.69833 -31.94561,-22.60826 C 79.366238,269.221 54.085408,214.54291 54.241171,165.12771 c 0.04969,-15.76462 2.350327,-22.49563 9.896733,-28.95508 6.169696,-5.28103 15.089971,-8.35412 30.403688,-10.47426 26.817778,-3.71285 61.524678,5.60354 89.053518,23.90467 10.27488,6.83073 23.57622,20.37877 26.94647,27.44626 1.19393,2.5037 2.82258,4.55454 3.61922,4.55742 0.79665,0.003 10.32447,-9.08898 21.17295,-20.20414 20.50321,-21.00724 31.75728,-30.14293 53.00121,-43.02469 36.41161,-22.079026 78.3883,-36.97343 123.15902,-43.699976 24.39911,-3.665827 71.08685,-3.389893 96.58206,0.570821 47.30045,7.348187 88.14719,22.514385 124.53349,46.238685 18.51161,12.0698 30.77436,22.51522 44.64066,38.02497 11.47095,12.83049 16.58337,16.64784 22.29578,16.64784 4.09166,0 12.4775,-5.38606 26.08754,-16.75551 42.76533,-35.72495 113.73767,-44.07987 130.21664,-15.32919 2.91185,5.08028 3.17705,7.08048 3.08159,23.24268 -0.15424,26.11526 -7.37425,56.62213 -19.73583,83.39026 -15.70916,34.01704 -49.00072,70.3206 -73.02846,79.63555 -9.23707,3.58098 -9.66186,3.32589 -8.14297,-4.88969 0.72619,-3.9279 0.9927,-16.93587 0.59224,-28.9066 -0.6268,-18.7365 -1.3212,-23.94169 -4.99052,-37.40855 -4.85275,-17.81023 -4.74472,-24.84531 0.55474,-36.12497 8.48435,-18.05854 26.94978,-32.27145 57.24437,-44.0612 15.21281,-5.92037 16.9755,-6.95393 19.20169,-11.2589 2.74615,-5.31046 0.63465,-8.52425 -6.83653,-10.40551 -33.81542,-8.51483 -78.76604,18.79377 -97.81659,59.42596 -5.89212,12.56708 -5.81691,25.1577 0.26562,44.46509 11.63659,36.93728 6.59181,86.02375 -12.80052,124.55123 -19.90883,39.5536 -58.72657,76.15997 -104.0198,98.09397 -53.73879,26.02391 -123.50134,37.93584 -189.08318,32.28589 z m 42.15896,-52.3237 c 20.24313,-3.84005 33.64069,-11.60284 37.50974,-21.73381 2.84017,-7.43685 1.75049,-12.5012 -3.08546,-14.33982 -5.08988,-1.93516 -9.54721,-0.59983 -18.6737,5.59433 -10.01056,6.79417 -18.95367,9.47338 -31.62185,9.47338 -8.91605,0 -11.39278,-0.653 -23.89862,-6.30102 -16.12628,-7.28313 -23.82328,-8.72301 -28.88848,-5.40416 -11.82642,7.74896 8.21199,27.2402 33.6994,32.7792 11.4224,2.48233 21.61886,2.46249 34.95897,-0.0681 z M 351.64031,404.76521 c 5.98537,-1.57062 14.69584,-4.64007 19.35662,-6.82099 55.62826,-26.03021 82.90449,-98.63849 60.3111,-160.54585 -10.05048,-27.53894 -30.63078,-49.59866 -57.73694,-61.88735 -17.95008,-8.13774 -25.19649,-9.56698 -47.77668,-9.42314 -17.43188,0.11103 -22.35421,0.649 -33.78597,3.6925 -45.79976,12.19335 -77.91108,47.48473 -88.11434,96.84051 -2.91829,14.1165 -1.99082,40.13205 1.97424,55.37821 4.06208,15.61911 13.08718,33.76947 22.66961,45.59073 16.61006,20.49085 43.11923,35.52654 70.10319,39.76172 12.98645,2.03824 40.49059,0.69605 52.99917,-2.58634 z m 252.33763,2.56928 c 61.38682,-9.84684 107.45222,-69.41482 100.56347,-130.04037 -3.61484,-31.81295 -22.14226,-64.79893 -48.07802,-85.59753 -25.11316,-20.13892 -51.68369,-28.38402 -80.29888,-24.91756 -16.4106,1.98799 -35.94183,7.04396 -46.75135,12.10235 -29.76996,13.93104 -52.60588,41.90764 -61.62426,75.49672 -4.29892,16.01136 -4.2931,43.05571 0.0129,59.85366 12.60589,49.17646 50.03762,85.30977 96.49706,93.14979 9.42676,1.59077 29.6179,1.56681 39.67909,-0.0471 z m -170.13613,-7.35284 c 4.4717,-2.31241 5.54045,-4.51118 5.53345,-11.38414 -0.007,-6.69608 -4.42568,-13.54854 -10.32688,-16.01423 -12.92565,-5.40067 -22.15625,8.90544 -13.77271,21.34575 5.15797,7.65391 11.48248,9.71572 18.56614,6.05262 z m 38.17097,-2.76317 c 5.61023,-2.90116 8.17689,-7.23801 8.17689,-13.81639 0,-6.80204 -2.661,-9.99681 -8.32659,-9.99681 -6.00963,0 -11.42677,3.36167 -13.93512,8.6476 -2.63055,5.54351 -2.77291,8.17223 -0.65994,12.18656 2.91417,5.53647 7.86497,6.53673 14.74476,2.97904 z"
       id="path4" /><path
       style="fill:#f5e3f3;fill-opacity:1;stroke-width:1.36245"
       d="m 368.64419,921.16162 c -1.87043,-0.98582 -7.99907,-4.32413 -13.61921,-7.41847 -12.93651,-7.12259 -19.03428,-8.61375 -59.69375,-14.5976 -54.68354,-8.04779 -74.38008,-12.97296 -98.07868,-24.52483 -58.87487,-28.6985 -96.82492,-84.08417 -110.877036,-161.81793 -3.037321,-16.8019 -4.175672,-56.24475 -2.139649,-74.13693 7.992243,-70.23433 37.602685,-127.14057 84.562615,-162.51499 12.47046,-9.39386 33.29667,-21.12695 37.5003,-21.12695 4.17686,0 12.83538,5.76785 23.74289,15.81626 13.19215,12.15309 29.89117,23.37459 50.18233,33.7218 49.68302,25.33519 102.09609,38.06119 163.91743,39.7995 38.27837,1.07632 59.1038,-0.77517 87.74004,-7.80052 12.34482,-3.02856 27.06817,-5.85869 32.71856,-6.28916 10.26802,-0.78227 10.27538,-0.78039 13.93149,3.56466 3.79125,4.50564 6.91559,13.7503 8.419,24.91115 l 0.8704,6.46147 -26.26934,0.004 c -30.11044,0.004 -45.90151,1.60846 -62.31756,6.33026 -30.71591,8.83492 -48.75771,23.84274 -65.30236,54.32084 -9.84791,18.14158 -7.53206,17.29576 -27.53113,10.05513 -22.61835,-8.18892 -44.22447,-23.43761 -60.59921,-42.76839 -11.60672,-13.702 -17.58064,-18.44418 -24.38452,-19.35678 -7.15118,-0.95917 -10.5658,2.76724 -9.54047,10.4116 2.0318,15.14825 36.61418,49.52775 69.17331,68.76752 23.46246,13.86439 39.61219,18.68576 70.5735,21.06916 10.84848,0.83512 22.47914,2.18455 25.84591,2.99875 18.2555,4.41481 30.76403,16.35851 33.17903,31.68085 1.46235,9.27816 -0.38469,9.78538 -10.18532,2.79702 -10.62555,-7.57657 -26.56899,-15.71997 -30.77713,-15.71997 -2.5027,0 -3.09907,0.74854 -3.09907,3.88978 0,3.08501 1.4423,4.98473 6.97113,9.1821 8.08394,6.13713 16.0549,18.2658 17.09358,26.00972 0.62585,4.66611 0.23444,5.75784 -2.96734,8.27636 -3.32669,2.61678 -4.04156,2.71541 -7.29166,1.00601 -1.98186,-1.04236 -6.35801,-4.73607 -9.72478,-8.20824 -8.87144,-9.14919 -21.00283,-15.78215 -24.6933,-13.5013 -0.64937,0.40133 1.95847,6.84096 5.7952,14.31029 3.83673,7.46932 6.60266,13.95378 6.14652,14.40992 -1.61039,1.61039 -12.79743,0.62149 -16.88574,-1.49266 -2.27807,-1.17804 -9.2435,-7.69295 -15.47876,-14.47759 -18.41101,-20.03326 -23.72399,-22.57475 -63.70877,-30.47559 -28.00917,-5.5345 -42.13266,-9.49061 -60.06968,-16.826 -32.97014,-13.48324 -58.30862,-33.79583 -72.5635,-58.17057 -6.15163,-10.51881 -10.35478,-14.19056 -16.24429,-14.19056 -7.05752,0 -9.62391,2.83742 -9.43764,10.43427 0.19998,8.15598 3.99061,16.90932 13.53327,31.25105 4.06476,6.10894 7.39046,12.00885 7.39046,13.11089 0,3.10567 -2.93815,4.84653 -10.97526,6.50286 -16.94975,3.49307 -39.88794,18.93462 -45.40835,30.56803 -1.25182,2.63802 -2.08559,6.76754 -1.85282,9.17669 0.37401,3.87088 0.95231,4.43097 4.97268,4.81613 3.10782,0.29773 6.16005,-0.63 9.63212,-2.9277 18.91264,-12.5158 37.59558,-18.52937 60.79512,-19.56843 20.20309,-0.90485 32.45792,1.4558 48.03685,9.2533 31.3633,15.69782 46.58939,53.54572 35.25092,87.62407 -6.41198,19.27147 -18.09718,34.9356 -38.91493,52.16579 -8.10693,6.70987 -15.89263,14.37136 -17.34506,17.06837 l -2.63538,4.8936 3.06455,3.06457 c 4.40237,4.40236 12.45246,3.69034 27.05423,-2.39291 25.09463,-10.45467 38.59534,-14.57195 50.14451,-15.29248 29.35178,-1.83119 53.6609,14.23455 53.6609,35.46413 0,4.53431 -0.54556,6.37208 -1.8916,6.37208 -1.04038,0 -7.4599,-3.65634 -14.2656,-8.12521 -20.43013,-13.41514 -29.562,-16.79404 -38.99162,-14.42736 -3.52024,0.88353 -3.5649,1.01003 -1.25693,3.56032 1.31614,1.45432 5.21074,4.26623 8.65464,6.24867 22.94689,13.20912 30.06707,20.18808 30.06707,29.47079 0,8.1736 -5.92403,11.35684 -13.60311,7.30952 z"
       id="path5" /><path
       style="fill:#f5e3f3;fill-opacity:1;stroke-width:1.36245"
       d="m 594.15498,855.5765 c -0.53951,-0.54784 -26.24939,-1.091 -57.13305,-1.20699 -55.15287,-0.20715 -56.27314,-0.26558 -62.95366,-3.28303 -14.65864,-6.62103 -21.08752,-17.56946 -22.09076,-37.6207 -0.66577,-13.30637 2.03145,-29.85777 5.80385,-35.61519 2.82685,-4.31431 6.08366,-5.41986 20.80967,-7.06397 6.77293,-0.75617 14.13458,-2.31611 16.3592,-3.46651 2.22463,-1.15039 7.31229,-5.881 11.30591,-10.51247 3.99363,-4.63146 11.88841,-13.06047 17.54396,-18.73113 12.0028,-12.03488 14.33659,-17.73317 13.17737,-32.17456 -0.90558,-11.28167 -6.80338,-23.61048 -16.22734,-33.9218 -8.49998,-9.30033 -15.14109,-13.2773 -28.17535,-16.87258 -14.12149,-3.89517 -15.10573,-5.05305 -15.10573,-17.77053 0,-14.36957 2.91528,-22.17488 11.46237,-30.6891 13.06304,-13.0128 28.71338,-16.00951 84.43953,-16.16839 57.28424,-0.16333 149.05706,1.89126 154.98268,3.46971 11.49403,3.06176 20.03545,11.87584 22.45885,23.17577 1.94498,9.06908 1.81113,18.21462 -0.52585,35.93341 -1.08085,8.19487 -2.92307,29.27477 -4.0938,46.84423 -7.68374,115.31062 -9.00495,125.06826 -18.97424,140.13289 -4.05439,6.12659 -14.18451,11.44046 -25.97844,13.62728 -9.27131,1.71908 -105.58186,3.4402 -107.08517,1.91366 z m -16.75411,-57.73489 c 6.21034,-2.36118 17.03872,-13.83005 26.70256,-28.28202 5.16817,-7.72885 9.39668,-14.70683 9.39668,-15.50662 0,-3.20579 4.21499,2.33831 12.25091,16.11396 10.0932,17.30238 17.51897,25.73117 24.51607,27.82756 7.007,2.09934 14.52522,0.43661 19.21043,-4.24862 8.03749,-8.03747 3.6646,-19.21818 -16.22067,-41.47342 -14.32899,-16.03674 -17.29649,-27.5106 -10.05124,-38.86326 2.12278,-3.3262 8.12394,-10.63869 13.33592,-16.24997 5.21197,-5.61128 10.89585,-12.23861 12.63085,-14.7274 11.3849,-16.33122 0.36538,-34.34089 -17.70027,-28.9283 -6.80811,2.03976 -16.60315,11.83208 -25.53713,25.53004 -3.81817,5.85417 -7.71889,11.76091 -8.66826,13.12608 -1.56003,2.24328 -2.23929,1.58876 -7.05871,-6.80155 -8.65159,-15.06191 -16.75462,-25.84446 -21.73519,-28.92262 -8.59233,-5.31035 -20.87138,-3.2615 -24.6882,4.11941 -4.46576,8.63584 -1.18191,17.47634 13.18269,35.48929 20.5228,25.73521 20.13193,31.06319 -4.19423,57.17157 -14.94028,16.03486 -19.12664,22.76873 -19.12664,30.76571 0,11.46971 11.85239,18.3853 23.75443,13.86016 z"
       id="path6" /><path
       style="fill:#f5e3f3;fill-opacity:1;stroke-width:1.36245"
       d="m 459.62146,932.17628 c -8.6757,-1.48223 -19.64111,-7.35801 -24.3219,-13.03281 -8.91788,-10.81168 -12.00423,-28.20314 -11.13839,-62.76454 l 0.4244,-16.94052 4.81907,8.55131 c 9.20111,16.32711 23.44105,27.48669 41.40593,32.44904 7.49135,2.0693 13.60877,2.34704 44.06702,2.00072 19.45244,-0.22118 65.669,-0.53952 102.70345,-0.70741 71.38722,-0.32363 86.05826,-1.38853 106.41485,-7.72421 21.06142,-6.55505 35.9017,-24.59235 41.22026,-50.10023 1.08892,-5.22254 2.90758,-22.5634 4.04144,-38.53522 1.13387,-15.97183 3.28694,-40.67033 4.78462,-54.88558 1.49769,-14.21525 3.05969,-39.00691 3.47114,-55.09258 0.73003,-28.5401 2.48414,-46.94301 4.59907,-48.2501 2.10714,-1.30229 19.17064,18.1257 22.71023,25.85722 5.16129,11.27373 5.76131,29.74111 1.92091,59.12127 -2.8065,21.47045 -5.92887,63.01964 -10.27369,136.71122 -1.12797,19.13118 -2.90221,37.43938 -4.05589,41.8524 -5.70355,21.8169 -20.24507,35.91863 -41.58353,40.32586 -8.61581,1.7795 -281.22845,2.86933 -291.20899,1.16416 z"
       id="path7" /><path
       style="fill:#f5e3f3;fill-opacity:1;stroke-width:1.36245"
       d="m 389.16667,837.87034 c -7.647,-3.31851 -24.59205,-7.19273 -35.85719,-8.19818 -8.8275,-0.78788 -10.46719,-1.30539 -9.9291,-3.13381 9.79086,-33.26904 11.1585,-59.78942 4.42719,-85.84919 -1.83591,-7.10762 -3.2137,-13.06623 -3.06174,-13.24136 0.15196,-0.17512 6.96857,0.94323 15.14803,2.48522 24.45697,4.61064 33.34541,9.87939 40.21815,23.83991 7.34607,14.92199 7.01488,36.87643 -1.08005,71.59557 -1.87522,8.04284 -3.81732,14.59938 -4.31576,14.57009 -0.49844,-0.0293 -2.99573,-0.96 -5.54953,-2.06825 z"
       id="path8" /><path
       style="fill:#ffffff;fill-opacity:1;stroke-width:1.36245"
       d="m 165.85931,955.59236 c -20.71788,-2.33908 -42.91234,-9.33214 -56.41265,-17.77453 -14.277201,-8.92823 -28.327797,-25.54636 -35.973199,-42.54677 -10.732945,-23.8659 -10.914219,-51.96199 -0.4532,-70.24264 3.357151,-5.86663 13.684915,-17.68404 15.454874,-17.68404 1.404461,0 17.574735,24.02325 19.873445,29.52483 1.96319,4.69856 1.9418,5.97078 -0.26263,15.62266 -4.46734,19.55975 1.32614,38.59131 16.33096,53.64718 8.87732,8.90751 20.524,15.64696 32.3495,18.7193 13.20329,3.4303 25.56436,3.78438 54.20935,1.55281 28.73876,-2.23888 58.47799,-1.31818 67.43628,2.08775 l 3.62695,1.37897 -3.04022,2.12946 c -5.30569,3.71625 -26.98081,12.57832 -39.2804,16.06015 -24.6042,6.96507 -53.10159,9.86844 -73.85906,7.52487 z"
       id="path9" /><path
       style="fill:#ffffff;fill-opacity:1;stroke-width:1.36245"
       d="m 559.76784,390.54789 c -39.25477,-7.58803 -69.78256,-38.74716 -78.27212,-79.89084 -9.66558,-46.84313 10.81744,-89.6286 52.42274,-109.50198 43.0821,-20.5788 94.60181,-8.67614 122.37688,28.27287 14.4835,19.26731 21.09889,37.71214 22.13663,61.72064 0.59575,13.78276 0.25049,18.18415 -2.18753,27.88637 -7.09512,28.23544 -23.43661,48.28933 -49.89481,61.22965 -20.67573,10.11221 -46.68543,14.12931 -66.58179,10.28329 z m 36.30789,-28.9064 c 22.55957,-6.69327 36.40993,-20.29694 42.63971,-41.88026 3.07262,-10.64517 2.13006,-30.65306 -1.99072,-42.25785 -8.5516,-24.08274 -28.05358,-40.67593 -52.22256,-44.4334 -19.97782,-3.10588 -44.2909,4.59553 -58.02883,18.3812 -34.92424,35.04563 -14.66729,100.6791 34.52124,111.85042 9.68485,2.19954 24.42296,1.50211 35.08116,-1.66011 z"
       id="path10" /><path
       style="fill:#ffffff;fill-opacity:1;stroke-width:1.36245"
       d="m 301.98897,389.061 c -33.48167,-7.51072 -57.8948,-27.76419 -69.70153,-57.82535 -8.16265,-20.78293 -8.6265,-47.87323 -1.21118,-70.73616 5.78812,-17.84593 12.42361,-28.60439 26.1394,-42.38116 9.85291,-9.89672 13.76065,-12.75898 24.50683,-17.95027 23.60184,-11.40165 50.085,-13.47912 73.99875,-5.80483 56.62217,18.17092 83.14042,84.63518 56.50966,141.63351 -11.86226,25.38902 -30.6418,42.18572 -56.50966,50.54305 -13.72569,4.43446 -39.75811,5.65595 -53.73227,2.52121 z m 42.58684,-28.56734 c 18.28755,-4.76329 30.834,-14.96222 38.50261,-31.29848 10.68727,-22.76685 8.2069,-50.77018 -6.43963,-72.70354 -10.46681,-15.67417 -24.52541,-23.42131 -44.10416,-24.30405 -29.09567,-1.31183 -53.73696,12.26355 -65.51413,36.09304 -4.48494,9.07466 -5.10999,11.61862 -5.59839,22.78545 -0.62313,14.24717 1.49277,23.72974 8.05573,36.10251 8.59777,16.20888 28.21065,31.24661 44.80987,34.35696 7.48377,1.40229 22.96797,0.87476 30.2881,-1.03189 z"
       id="path11" /><path
       style="fill:#ffffff;fill-opacity:1;stroke-width:0.340613"
       d="m 585.36299,293.84552 c -6.31185,-1.44037 -11.76293,-6.96303 -13.49342,-13.67061 -0.68365,-2.64988 -0.6922,-7.21202 -0.0184,-9.79903 1.98919,-7.63701 9.54108,-13.07409 18.19711,-13.10122 8.67425,-0.0272 16.06336,7.30454 17.28588,17.15163 1.12702,9.07786 -3.54498,16.57913 -11.8582,19.03926 -2.66344,0.78819 -7.52387,0.97081 -10.11301,0.37997 z"
       id="path12" /><path
       style="fill:#f5e3f3;fill-opacity:1;stroke-width:0.340613"
       d="m 337.66714,295.20628 c -5.99715,-1.65437 -11.1707,-7.29824 -12.72227,-13.87883 -0.64613,-2.7404 -0.64771,-7.06632 -0.003,-9.53966 1.50119,-5.76345 5.54778,-9.95919 11.54764,-11.97328 7.18697,-2.41259 13.81978,-0.89088 18.70933,4.2923 7.05528,7.47897 7.37434,19.48579 0.69807,26.26958 -2.05118,2.08421 -5.68233,4.08409 -8.71219,4.79829 -2.60128,0.61318 -7.35167,0.62895 -9.51709,0.0316 z"
       id="path13" /><path
       style="fill:#f5e3f3;fill-opacity:1;stroke-width:0.9634"
       d="m 157.26818,953.82846 c -27.10093,-4.99932 -45.5039,-13.07786 -59.440709,-26.0933 -20.456342,-19.10398 -31.588155,-43.60454 -31.683507,-69.73383 -0.06483,-17.76624 4.096007,-30.05123 14.160595,-41.80954 6.858163,-8.01229 7.966165,-8.62683 10.258842,-5.6899 4.639412,5.94309 14.639609,21.59614 16.770189,26.24993 2.32869,5.08653 2.34857,5.33406 0.98483,12.25855 -3.07136,15.59499 -2.69052,24.93988 1.46954,36.05864 7.35453,19.65674 28.11528,36.33253 51.32975,41.22992 9.01642,1.90214 31.15245,2.13429 51.45885,0.53967 25.62667,-2.0124 58.06929,-0.9089 65.80822,2.23839 l 2.80476,1.14065 -6.77963,3.56259 c -15.6258,8.21113 -37.58552,15.36236 -58.46675,19.03983 -16.71584,2.94389 -45.50106,3.4386 -58.67498,1.0084 z"
       id="path14" /><path
       style="fill:#f5e3f3;fill-opacity:1;stroke-width:0.681226"
       d="m 921.2704,739.27947 c -5.03113,-2.61664 -7.78257,-7.22328 -7.80685,-13.07071 -0.0255,-6.14941 3.81252,-11.49574 9.35832,-13.03596 10.25712,-2.84868 18.61028,3.47441 18.61028,14.08743 0,4.90168 -2.59198,9.26446 -6.83566,11.5057 -3.61789,1.91073 -10.15526,2.16266 -13.32609,0.51354 z"
       id="path15" /><path
       style="fill:#f5e3f3;fill-opacity:1;stroke-width:0.681226"
       d="m 957.96507,602.68116 c -4.47061,-1.94728 -7.63876,-8.10482 -6.71195,-13.04517 1.1603,-6.18493 9.38585,-10.45741 14.78221,-7.67811 9.12637,4.70038 8.61075,17.74478 -0.82637,20.90561 -2.94882,0.98767 -4.65645,0.94469 -7.24389,-0.18233 z"
       id="path16" /><path
       style="fill:#f5e3f3;fill-opacity:1;stroke-width:0.681226"
       d="m 931.73274,373.4865 c -8.46048,-3.02335 -13.52304,-10.34746 -13.52304,-19.56407 0,-5.68571 1.11513,-8.95369 4.28349,-12.55314 3.93215,-4.46715 7.16941,-5.90127 14.08071,-6.23779 5.34494,-0.26026 6.06347,-0.13297 9.51943,1.68631 7.12224,3.74928 11.35558,11.83733 10.73325,20.50653 -0.39759,5.53848 -2.2159,9.3095 -6.08629,12.62241 -4.7672,4.08054 -13.13398,5.63868 -19.00755,3.53975 z"
       id="path17" /></g></svg>
