<svg id="visual" viewBox="0 0 3840 2160" width="3840" height="2160" xmlns="http://www.w3.org/2000/svg" xmlns:xlink="http://www.w3.org/1999/xlink" version="1.1">
<g stroke-width="5" stroke-linejoin="bevel">
<path d="M1946 1138L1577 1391L1977 1437Z" fill="#1e1e2e" stroke="#000000"></path>
<path d="M1946 1138L1560 1076L1577 1391Z" fill="#202031" stroke="#000000"></path>
<path d="M1977 1437L2248 1035L1946 1138Z" fill="#1f1f2f" stroke="#000000"></path>
<path d="M1946 1138L1878 690L1560 1076Z" fill="#1e1e2e" stroke="#000000"></path>
<path d="M1577 1391L1902 1856L1977 1437Z" fill="#252536" stroke="#000000"></path>
<path d="M1977 1437L2361 1443L2248 1035Z" fill="#222232" stroke="#000000"></path>
<path d="M2268 1807L2361 1443L1977 1437Z" fill="#232334" stroke="#000000"></path>
<path d="M1211 1802L1532 1848L1577 1391Z" fill="#232334" stroke="#000000"></path>
<path d="M1577 1391L1532 1848L1902 1856Z" fill="#222232" stroke="#000000"></path>
<path d="M2248 1035L1878 690L1946 1138Z" fill="#202031" stroke="#000000"></path>
<path d="M1878 690L1540 725L1560 1076Z" fill="#1e1e2e" stroke="#000000"></path>
<path d="M1560 1076L1090 1131L1577 1391Z" fill="#262638" stroke="#000000"></path>
<path d="M1902 1856L2268 1807L1977 1437Z" fill="#262638" stroke="#000000"></path>
<path d="M1197 745L1090 1131L1560 1076Z" fill="#1e1e2e" stroke="#000000"></path>
<path d="M1090 1131L1090 1487L1577 1391Z" fill="#202031" stroke="#000000"></path>
<path d="M2691 755L2241 729L2248 1035Z" fill="#1f1f2f" stroke="#000000"></path>
<path d="M2248 1035L2241 729L1878 690Z" fill="#222232" stroke="#000000"></path>
<path d="M1090 1487L1211 1802L1577 1391Z" fill="#242435" stroke="#000000"></path>
<path d="M1503 404L1197 745L1540 725Z" fill="#262638" stroke="#000000"></path>
<path d="M1540 725L1197 745L1560 1076Z" fill="#202031" stroke="#000000"></path>
<path d="M2621 1787L2622 1455L2361 1443Z" fill="#252536" stroke="#000000"></path>
<path d="M2361 1443L2656 1126L2248 1035Z" fill="#232334" stroke="#000000"></path>
<path d="M1503 2160L1948 2160L1902 1856Z" fill="#29293b" stroke="#000000"></path>
<path d="M1902 1856L1948 2160L2268 1807Z" fill="#1f1f2f" stroke="#000000"></path>
<path d="M2268 1807L2621 1787L2361 1443Z" fill="#1f1f2f" stroke="#000000"></path>
<path d="M1503 2160L1902 1856L1532 1848Z" fill="#1f1f2f" stroke="#000000"></path>
<path d="M2622 1455L2656 1126L2361 1443Z" fill="#29293b" stroke="#000000"></path>
<path d="M1211 1802L1503 2160L1532 1848Z" fill="#222232" stroke="#000000"></path>
<path d="M1878 690L1503 404L1540 725Z" fill="#1e1e2e" stroke="#000000"></path>
<path d="M1879 299L1503 404L1878 690Z" fill="#2a2a3c" stroke="#000000"></path>
<path d="M1090 1131L833 1374L1090 1487Z" fill="#252536" stroke="#000000"></path>
<path d="M1090 1487L820 1854L1211 1802Z" fill="#252536" stroke="#000000"></path>
<path d="M1211 1802L1093 2160L1503 2160Z" fill="#252536" stroke="#000000"></path>
<path d="M833 1082L833 1374L1090 1131Z" fill="#282839" stroke="#000000"></path>
<path d="M2344 2160L2621 1787L2268 1807Z" fill="#29293b" stroke="#000000"></path>
<path d="M3108 1401L3077 1098L2656 1126Z" fill="#29293b" stroke="#000000"></path>
<path d="M794 778L1090 1131L1197 745Z" fill="#232334" stroke="#000000"></path>
<path d="M794 778L833 1082L1090 1131Z" fill="#282839" stroke="#000000"></path>
<path d="M2301 366L1878 690L2241 729Z" fill="#222232" stroke="#000000"></path>
<path d="M2301 366L1879 299L1878 690Z" fill="#2a2a3c" stroke="#000000"></path>
<path d="M1948 2160L2344 2160L2268 1807Z" fill="#2a2a3c" stroke="#000000"></path>
<path d="M3077 1098L2691 755L2656 1126Z" fill="#242435" stroke="#000000"></path>
<path d="M2656 1126L2691 755L2248 1035Z" fill="#2a2a3c" stroke="#000000"></path>
<path d="M2691 755L2301 366L2241 729Z" fill="#202031" stroke="#000000"></path>
<path d="M820 1854L1093 2160L1211 1802Z" fill="#282839" stroke="#000000"></path>
<path d="M772 2160L820 1854L327 1840Z" fill="#2a2a3c" stroke="#000000"></path>
<path d="M833 1374L820 1854L1090 1487Z" fill="#2a2a3c" stroke="#000000"></path>
<path d="M750 357L794 778L1197 745Z" fill="#262638" stroke="#000000"></path>
<path d="M407 1133L434 1421L833 1374Z" fill="#252536" stroke="#000000"></path>
<path d="M1546 0L1218 296L1503 404Z" fill="#262638" stroke="#000000"></path>
<path d="M1503 404L1218 296L1197 745Z" fill="#222232" stroke="#000000"></path>
<path d="M2344 2160L2726 2160L2621 1787Z" fill="#222232" stroke="#000000"></path>
<path d="M3108 1401L2656 1126L2622 1455Z" fill="#222232" stroke="#000000"></path>
<path d="M3108 1401L2622 1455L3081 1811Z" fill="#1f1f2f" stroke="#000000"></path>
<path d="M2691 755L2737 308L2301 366Z" fill="#29293b" stroke="#000000"></path>
<path d="M2301 366L1968 0L1879 299Z" fill="#2a2a3c" stroke="#000000"></path>
<path d="M1879 299L1546 0L1503 404Z" fill="#29293b" stroke="#000000"></path>
<path d="M2318 0L1968 0L2301 366Z" fill="#202031" stroke="#000000"></path>
<path d="M3081 1811L2622 1455L2621 1787Z" fill="#242435" stroke="#000000"></path>
<path d="M1968 0L1546 0L1879 299Z" fill="#202031" stroke="#000000"></path>
<path d="M820 1854L772 2160L1093 2160Z" fill="#2a2a3c" stroke="#000000"></path>
<path d="M434 1421L820 1854L833 1374Z" fill="#282839" stroke="#000000"></path>
<path d="M407 1133L833 1374L833 1082Z" fill="#2a2a3c" stroke="#000000"></path>
<path d="M3030 669L2737 308L2691 755Z" fill="#242435" stroke="#000000"></path>
<path d="M2726 2160L3081 1811L2621 1787Z" fill="#232334" stroke="#000000"></path>
<path d="M327 772L407 1133L794 778Z" fill="#202031" stroke="#000000"></path>
<path d="M794 778L407 1133L833 1082Z" fill="#282839" stroke="#000000"></path>
<path d="M3077 1098L3030 669L2691 755Z" fill="#1e1e2e" stroke="#000000"></path>
<path d="M808 0L750 357L1218 296Z" fill="#222232" stroke="#000000"></path>
<path d="M1218 296L750 357L1197 745Z" fill="#1f1f2f" stroke="#000000"></path>
<path d="M2737 308L2318 0L2301 366Z" fill="#232334" stroke="#000000"></path>
<path d="M1546 0L1172 0L1218 296Z" fill="#1e1e2e" stroke="#000000"></path>
<path d="M2726 2160L3006 2160L3081 1811Z" fill="#2a2a3c" stroke="#000000"></path>
<path d="M442 390L327 772L794 778Z" fill="#242435" stroke="#000000"></path>
<path d="M0 1389L327 1840L434 1421Z" fill="#1f1f2f" stroke="#000000"></path>
<path d="M0 1389L434 1421L407 1133Z" fill="#232334" stroke="#000000"></path>
<path d="M434 1421L327 1840L820 1854Z" fill="#262638" stroke="#000000"></path>
<path d="M3030 669L3063 406L2737 308Z" fill="#202031" stroke="#000000"></path>
<path d="M2737 308L2695 0L2318 0Z" fill="#1e1e2e" stroke="#000000"></path>
<path d="M3411 355L3063 406L3030 669Z" fill="#202031" stroke="#000000"></path>
<path d="M3464 743L3030 669L3077 1098Z" fill="#29293b" stroke="#000000"></path>
<path d="M3123 0L2695 0L2737 308Z" fill="#282839" stroke="#000000"></path>
<path d="M750 357L442 390L794 778Z" fill="#252536" stroke="#000000"></path>
<path d="M435 0L442 390L750 357Z" fill="#252536" stroke="#000000"></path>
<path d="M1172 0L808 0L1218 296Z" fill="#252536" stroke="#000000"></path>
<path d="M3006 2160L3392 1776L3081 1811Z" fill="#1f1f2f" stroke="#000000">
</path><path d="M3081 1811L3392 1776L3108 1401Z" fill="#222232" stroke="#000000"></path>
<path d="M3108 1401L3513 1121L3077 1098Z" fill="#242435" stroke="#000000"></path>
<path d="M327 1840L329 2160L772 2160Z" fill="#1f1f2f" stroke="#000000"></path>
<path d="M3392 1776L3511 1378L3108 1401Z" fill="#222232" stroke="#000000"></path>
<path d="M3511 1378L3513 1121L3108 1401Z" fill="#232334" stroke="#000000"></path>
<path d="M3513 1121L3464 743L3077 1098Z" fill="#29293b" stroke="#000000"></path>
<path d="M3063 406L3123 0L2737 308Z" fill="#2a2a3c" stroke="#000000"></path>
<path d="M0 1076L0 1389L407 1133Z" fill="#202031" stroke="#000000"></path>
<path d="M327 1840L0 2160L329 2160Z" fill="#1e1e2e" stroke="#000000"></path>
<path d="M0 1076L407 1133L327 772Z" fill="#262638" stroke="#000000"></path>
<path d="M0 688L0 1076L327 772Z" fill="#232334" stroke="#000000"></path>
<path d="M0 1389L0 1820L327 1840Z" fill="#222232" stroke="#000000"></path>
<path d="M3411 355L3123 0L3063 406Z" fill="#282839" stroke="#000000"></path>
<path d="M3464 743L3411 355L3030 669Z" fill="#202031" stroke="#000000"></path>
<path d="M808 0L435 0L750 357Z" fill="#252536" stroke="#000000"></path>
<path d="M0 389L0 688L327 772Z" fill="#222232" stroke="#000000"></path>
<path d="M0 389L327 772L442 390Z" fill="#242435" stroke="#000000"></path>
<path d="M3006 2160L3521 2160L3392 1776Z" fill="#262638" stroke="#000000"></path>
<path d="M3392 1776L3840 1449L3511 1378Z" fill="#282839" stroke="#000000"></path>
<path d="M3511 1378L3840 1449L3513 1121Z" fill="#232334" stroke="#000000"></path>
<path d="M0 1820L0 2160L327 1840Z" fill="#202031" stroke="#000000"></path>
<path d="M435 0L0 389L442 390Z" fill="#262638" stroke="#000000"></path>
<path d="M3840 1848L3840 1449L3392 1776Z" fill="#282839" stroke="#000000"></path>
<path d="M3513 1121L3840 1051L3464 743Z" fill="#1e1e2e" stroke="#000000"></path>
<path d="M3464 743L3840 375L3411 355Z" fill="#282839" stroke="#000000"></path>
<path d="M3840 1449L3840 1051L3513 1121Z" fill="#222232" stroke="#000000"></path>
<path d="M3840 375L3429 0L3411 355Z" fill="#232334" stroke="#000000"></path>
<path d="M3411 355L3429 0L3123 0Z" fill="#2a2a3c" stroke="#000000"></path>
<path d="M3521 2160L3840 1848L3392 1776Z" fill="#282839" stroke="#000000"></path>
<path d="M3840 1051L3840 694L3464 743Z" fill="#282839" stroke="#000000"></path>
<path d="M435 0L0 0L0 389Z" fill="#1f1f2f" stroke="#000000"></path>
<path d="M3521 2160L3840 2160L3840 1848Z" fill="#1f1f2f" stroke="#000000"></path>
<path d="M3840 694L3840 375L3464 743Z" fill="#1e1e2e" stroke="#000000"></path>
<path d="M3840 375L3840 0L3429 0Z" fill="#29293b" stroke="#000000"></path>
</g>
</svg>