<svg xmlns="http://www.w3.org/2000/svg" xmlns:xlink="http://www.w3.org/1999/xlink" style="display:none">
  <!-- LinkedIn Icon -->
  <symbol id="linkedin" viewBox="0 0 256 256">
    <path d="M218.123 218.127h-37.931v-59.403c0-14.165-.253-32.4-19.728-32.4-19.756 0-22.779 15.434-22.779 31.369v60.43h-37.93V95.967h36.413v16.694h.51a39.907 39.907 0 0 1 35.928-19.733c38.445 0 45.533 25.288 45.533 58.186l-.016 67.013ZM56.955 79.27c-12.157.002-22.014-9.852-22.016-22.009-.002-12.157 9.851-22.014 22.008-22.016 12.157-.003 22.014 9.851 22.016 22.008A22.013 22.013 0 0 1 56.955 79.27m18.966 138.858H37.95V95.967h37.97v122.16ZM237.033.018H18.89C8.58-.098.125 8.161-.001 18.471v219.053c.122 10.315 8.576 18.582 18.89 18.474h218.144c10.336.128 18.823-8.139 18.966-18.474V18.454c-.147-10.33-8.635-18.588-18.966-18.453" 
    fill="#FFE185"/>
  </symbol>
  <!-- GitHub Icon -->
  <symbol id="github" viewBox="0 0 1024 1024">
    <path fill-rule="evenodd" clip-rule="evenodd" d="M8 0C3.58 0 0 3.58 0 8C0 11.54 2.29 14.53 5.47 15.59C5.87 15.66 6.02 15.42 6.02 15.21C6.02 15.02 6.01 14.39 6.01 13.72C4 14.09 3.48 13.23 3.32 12.78C3.23 12.55 2.84 11.84 2.5 11.65C2.22 11.5 1.82 11.13 2.49 11.12C3.12 11.11 3.57 11.7 3.72 11.94C4.44 13.15 5.59 12.81 6.05 12.6C6.12 12.08 6.33 11.73 6.56 11.53C4.78 11.33 2.92 10.64 2.92 7.58C2.92 6.71 3.23 5.99 3.74 5.43C3.66 5.23 3.38 4.41 3.82 3.31C3.82 3.31 4.49 3.1 6.02 4.13C6.66 3.95 7.34 3.86 8.02 3.86C8.7 3.86 9.38 3.95 10.02 4.13C11.55 3.09 12.22 3.31 12.22 3.31C12.66 4.41 12.38 5.23 12.3 5.43C12.81 5.99 13.12 6.7 13.12 7.58C13.12 10.65 11.25 11.33 9.47 11.53C9.76 11.78 10.01 12.26 10.01 13.01C10.01 14.08 10 14.94 10 15.21C10 15.42 10.15 15.67 10.55 15.59C13.71 14.53 16 11.53 16 8C16 3.58 12.42 0 8 0Z" transform="scale(64)" fill="#FFE185"/> <!--#fff-->
  </symbol>
  <!-- Verified Icon -->
  <symbol id="verified" viewBox="0 0 20 20">
    <path fill-rule="evenodd" d="M10 18a8 8 0 100-16 8 8 0 000 16zm3.707-8.707a1 1 0 00-1.414-1.414L9 11.172l-1.293-1.293a1 1 0 00-1.414 1.414l2 2a1 1 0 001.414 0l4-4z" clip-rule="evenodd" />
  </symbol>
  <!-- Arrow Down -->
  <symbol id="arrow-down" viewBox="0 0 24 24">
    <path stroke="none" d="M0 0h24v24H0z" fill="none"/>
    <path d="M6 9l6 6l6 -6" 
          fill="none" 
          stroke="#FFE185" 
          stroke-width="2" 
          stroke-linecap="round" 
          stroke-linejoin="round" />
  </symbol>
  <!-- Download -->
<symbol id="download" viewBox="0 0 24 24">
  <!-- Flecha -->
  <path
    d="M12 3v12"
    fill="none"
    stroke="#1E1E2E"
    stroke-width="2"
    stroke-linecap="round"
    stroke-linejoin="round"
  />
  <path
    d="M6 11l6 6 6-6"
    fill="none"
    stroke="#1E1E2E"
    stroke-width="2"
    stroke-linecap="round"
    stroke-linejoin="round"
  />
  <!-- Base -->
  <path
    d="M3 21h18"
    fill="none"
    stroke="#1E1E2E"
    stroke-width="2"
    stroke-linecap="round"
    stroke-linejoin="round"
  />
</symbol>
<!-- ==================== -->
<!-- STACK JAVA -->
<!-- ==================== -->
<!-- Java Logo -->
<symbol id="java-logo" viewBox="0 0 32 32">
  <path d="M16.0497 8.44062C22.6378 3.32607 19.2566 0 19.2566 0C19.7598 5.28738 13.813 6.53583 12.2189 10.1692C11.1312 12.6485 12.9638 14.8193 16.0475 17.5554C15.7749 16.9494 15.3544 16.3606 14.9288 15.7645C13.4769 13.7313 11.9645 11.6132 16.0497 8.44062Z" fill="#E76F00"></path>
  <path d="M17.1015 18.677C17.1015 18.677 19.0835 17.0779 17.5139 15.3008C12.1931 9.27186 23.3333 6.53583 23.3333 6.53583C16.5317 9.8125 17.5471 11.7574 19.2567 14.1202C21.0871 16.6538 17.1015 18.677 17.1015 18.677Z" fill="#E76F00"></path>
  <path d="M22.937 23.4456C29.0423 20.3258 26.2195 17.3278 24.2492 17.7317C23.7662 17.8305 23.5509 17.9162 23.5509 17.9162C23.5509 17.9162 23.7302 17.64 24.0726 17.5204C27.9705 16.1729 30.9682 21.4949 22.8143 23.6028C22.8143 23.6029 22.9088 23.5198 22.937 23.4456Z" fill="#5382A1"></path>
  <path d="M10.233 19.4969C6.41312 18.9953 12.3275 17.6139 12.3275 17.6139C12.3275 17.6139 10.0307 17.4616 7.20592 18.8043C3.86577 20.3932 15.4681 21.1158 21.474 19.5625C22.0984 19.1432 22.9614 18.7798 22.9614 18.7798C22.9614 18.7798 20.5037 19.2114 18.0561 19.4145C15.0612 19.6612 11.8459 19.7093 10.233 19.4969Z" fill="#5382A1"></path>
  <path d="M11.6864 22.4758C9.55624 22.2592 10.951 21.2439 10.951 21.2439C5.43898 23.0429 14.0178 25.083 21.7199 22.8682C20.9012 22.5844 20.3806 22.0653 20.3806 22.0653C16.6163 22.7781 14.441 22.7553 11.6864 22.4758Z" fill="#5382A1"></path>
  <path d="M12.6145 25.6991C10.486 25.4585 11.7295 24.7474 11.7295 24.7474C6.72594 26.1222 14.7729 28.9625 21.1433 26.2777C20.0999 25.8787 19.3528 25.4181 19.3528 25.4181C16.5111 25.9469 15.1931 25.9884 12.6145 25.6991Z" fill="#5382A1"></path>
  <path d="M25.9387 27.3388C25.9387 27.3388 26.8589 28.0844 24.9252 28.6612C21.2481 29.7566 9.62093 30.0874 6.39094 28.7049C5.22984 28.2082 7.40723 27.5189 8.09215 27.3742C8.80646 27.2219 9.21466 27.2503 9.21466 27.2503C7.9234 26.3558 0.868489 29.0067 5.63111 29.7659C18.6195 31.8372 29.3077 28.8331 25.9387 27.3388Z" fill="#5382A1"></path>
  <path d="M28 28.9679C27.7869 31.6947 18.7877 32.2683 12.9274 31.8994C9.10432 31.6583 8.33812 31.0558 8.32691 31.047C11.9859 31.6402 18.1549 31.7482 23.1568 30.8225C27.5903 30.0016 28 28.9679 28 28.9679Z" fill="#5382A1"></path>
</symbol>
<!-- Spring Boot -->
<symbol id="spring-boot" viewBox="0 0 32 32">
  <path fill="#8bc34a" style="fill: var(--color1, #8bc34a)" d="M29.321 15.757c0.046-2.841-0.594-6.219-1.927-10.182l-1.045-3.108-1.42 2.955c-0.076 0.158-0.163 0.313-0.253 0.465-2.333-2.003-5.359-3.221-8.675-3.221-7.364 0-13.333 5.969-13.333 13.333s5.969 13.333 13.333 13.333 13.333-5.969 13.333-13.333c0-0.082-0.011-0.161-0.012-0.243z"></path>
  <path fill="#fff" style="fill: var(--color2, #fff)" d="M26.257 21.705c-2.082 2.868-5.767 3.022-9.236 2.961h-5.813c2.952-1.062 4.709-1.315 6.503-2.267 3.379-1.777 6.719-5.664 7.414-9.708-1.287 3.891-5.186 7.233-8.739 8.593-2.435 0.929-6.832 1.83-6.832 1.83l-0.178-0.097c-2.993-1.506-3.084-8.209 2.358-10.373 2.383-0.949 4.662-0.427 7.236-1.062 2.748-0.675 5.927-2.805 7.22-5.583 1.448 4.445 3.191 11.404 0.067 15.705v0zM10.445 25.63c-0.188 0.233-0.475 0.37-0.775 0.37-0.549 0-0.997-0.451-0.997-1s0.451-1 0.997-1c0.227 0 0.451 0.079 0.627 0.224 0.427 0.346 0.493 0.979 0.148 1.406v0z"></path>
</symbol>
<!-- ==================== -->
<!-- STACK Movil -->
<!-- ==================== -->
<!-- Kotlin -->
  <symbol id="kotlin" viewBox="0 0 32 32">
    <defs>
      <linearGradient id="kotlin-gradient" x1="0" y1="0" x2="32" y2="32" gradientUnits="userSpaceOnUse">
        <stop offset="0%" stop-color="#7F52FF"/>
        <stop offset="50%" stop-color="#C757BC"/>
        <stop offset="100%" stop-color="#FF8F00"/>
      </linearGradient>
    </defs>
    <path d="M28.121 28.121h-24.242v-24.242h24.242l-12.121 12.121z" fill="url(#kotlin-gradient)"/>
  </symbol>
<!-- Jetpack Compose -->
<symbol id="jetpackcompose" viewBox="0 0 32 32">
  <path fill="#083042" style="fill: var(--color19, #083042)" d="M10.306 19.195c-0.054-0.093-0.095-0.201-0.117-0.316l-0.001-0.006c0.023 0.113 0.063 0.222 0.117 0.323zM10.451 19.373c0.056 0.055 0.118 0.103 0.187 0.137v0c-0.072-0.037-0.133-0.083-0.187-0.137l-0-0z"></path>
  <path fill="#083042" style="fill: var(--color19, #083042)" d="M16.085 25.492h-0.035c-0.003 0-0.006 0-0.009 0-0.365 0-0.708-0.094-1.005-0.259l0.011 0.005-7.046-3.938c-0.416-0.233-0.671-0.665-0.671-1.132v-8.011c0-0.343 0.062-0.672 0.207-0.96l-5.509-3.066c-0.228 0.48-0.346 1.022-0.339 1.591v13.232c0.009 0.802 0.451 1.498 1.104 1.867l0.011 0.006 11.62 6.503c0.512 0.288 1.087 0.425 1.654 0.425v-0.007c0.014-0.83 0.007-4.157 0.007-6.256z"></path>
  <path fill="#3ddb85" style="fill: var(--color20, #3ddb85)" d="M21.615 12.65l-0.042-0.062c-0.035-0.048-0.069-0.089-0.103-0.137 0.035 0.041 0.069 0.089 0.103 0.137 0.016 0.018 0.030 0.038 0.041 0.060l0.001 0.001zM15.816 9.44c0.035 0 0.063-0.007 0.098-0.007-0.035 0.007-0.069 0.007-0.098 0.007z"></path>
  <path fill="#3ddc84" style="fill: var(--color21, #3ddc84)" d="M7.53 11.189c0.159-0.323 0.401-0.585 0.698-0.763l0.008-0.005 6.63-3.876c0.292-0.175 0.645-0.278 1.022-0.278 0.362 0 0.702 0.096 0.996 0.263l-0.010-0.005 6.7 3.752c0.305 0.172 0.557 0.403 0.75 0.678l0.005 0.007 5.419-3.203c-0.325-0.463-0.739-0.841-1.22-1.115l-0.018-0.010-11.067-6.194c-0.468-0.266-1.028-0.423-1.624-0.423-0.621 0-1.202 0.17-1.699 0.466l0.015-0.008-10.942 6.393c-0.505 0.299-0.904 0.729-1.155 1.245l-0.008 0.017 5.502 3.059z"></path>
  <path fill="#3ddb85" style="fill: var(--color20, #3ddb85)" d="M15.539 9.496c0.014-0.007 0.028-0.007 0.043-0.014-0.014 0.007-0.028 0.007-0.043 0.014zM10.319 12.733c0.014-0.027 0.028-0.055 0.042-0.075-0.014 0.027-0.028 0.047-0.042 0.075l-0.021 0.062z"></path>
  <path fill="#4285f4" style="fill: var(--color22, #4285f4)" d="M29.741 7.76l-5.419 3.203c0.207 0.302 0.332 0.658 0.339 1.022v7.627c0 0.007 0 0.015 0 0.024 0 0.724-0.391 1.358-0.973 1.7l-0.009 0.005-6.631 3.876c-0.276 0.164-0.606 0.264-0.959 0.274l-0.003 0c0.007 2.092 0.007 5.419-0.007 6.249v0.007c0.61-0.007 1.18-0.174 1.67-0.462l-0.016 0.009 10.942-6.4c1.017-0.597 1.64-1.681 1.627-2.854v-12.587c-0.007-0.611-0.215-1.194-0.561-1.694z"></path>
  <path fill="#4285f4" style="fill: var(--color22, #4285f4)" d="M21.741 18.797c-0.007 0.014-0.007 0.028-0.014 0.042 0.008-0.012 0.013-0.026 0.014-0.042l0-0zM21.671 12.74c-0.014-0.034-0.035-0.062-0.056-0.096 0.021 0.034 0.041 0.069 0.055 0.096zM16.702 22.144l4.443-2.599c0.028-0.014 0.049-0.035 0.076-0.048-0.028 0.014-0.049 0.035-0.076 0.048l-4.443 2.6zM21.685 18.954c-0.014 0.035-0.035 0.069-0.049 0.103 0.014-0.041 0.028-0.076 0.049-0.103z"></path>
  <path fill="#d6f0ff" style="fill: var(--color23, #d6f0ff)" d="M10.3 12.794c-0.053 0.123-0.090 0.265-0.103 0.413l-0 0.005c-0.007 0.055-0.007 0.11-0.007 0.171v5.371c0 0.041 0 0.076 0.007 0.117 0.014 0.116 0.056 0.226 0.117 0.323 0.042 0.069 0.090 0.123 0.139 0.178 0.056 0.055 0.117 0.103 0.187 0.137l4.721 2.641c0.191 0.108 0.42 0.171 0.664 0.171 0.003 0 0.005 0 0.007-0h0.048c0.231-0.008 0.445-0.076 0.629-0.188l-0.006 0.003 4.443-2.6c0.028-0.014 0.049-0.035 0.076-0.048 0.049-0.034 0.097-0.069 0.139-0.11 0.065-0.059 0.125-0.123 0.18-0.192 0.035-0.048 0.069-0.096 0.097-0.144 0.020-0.034 0.035-0.069 0.048-0.103s0.035-0.075 0.049-0.116c0.007-0.014 0.007-0.028 0.014-0.041 0.040-0.121 0.062-0.261 0.062-0.405 0-0.002 0-0.004-0-0.007v0-5.11c0-0.096-0.014-0.185-0.035-0.274-0.014-0.062-0.035-0.117-0.055-0.172l-0.041-0.082c-0.014-0.034-0.035-0.062-0.055-0.096l-0.041-0.062c-0.035-0.048-0.069-0.089-0.104-0.137-0.112-0.13-0.245-0.237-0.394-0.319l-0.007-0.004-4.491-2.517c-0.068-0.039-0.148-0.077-0.232-0.107l-0.011-0.003c-0.102-0.032-0.22-0.054-0.342-0.061l-0.004-0h-0.090c-0.034 0-0.062 0-0.097 0.007-0.088 0.008-0.168 0.023-0.245 0.044l0.010-0.002c-0.014 0.007-0.027 0.007-0.041 0.014-0.104 0.027-0.201 0.075-0.298 0.13l-4.443 2.6c-0.131 0.078-0.242 0.176-0.33 0.292l-0.002 0.003c-0.034 0.048-0.069 0.096-0.097 0.144-0.014 0.027-0.027 0.048-0.041 0.075l-0.021 0.062z"></path>
  <path fill="#083042" style="fill: var(--color19, #083042)" d="M16.078 22.322h-0.049c-0.002 0-0.004 0-0.007 0-0.244 0-0.473-0.063-0.672-0.175l0.007 0.004-4.72-2.641c-0.071-0.040-0.132-0.086-0.187-0.138l0 0c-0.053-0.052-0.099-0.11-0.136-0.175l-0.002-0.004c-0.054-0.093-0.095-0.201-0.117-0.316l-0.001-0.006c-0.007-0.041-0.007-0.075-0.007-0.116v-5.371c0-0.055 0-0.116 0.007-0.171 0.013-0.144 0.048-0.285 0.104-0.418l-1.274-0.775-1.495-0.83c-0.138 0.288-0.207 0.617-0.207 0.96v8.012c0.009 0.483 0.274 0.902 0.665 1.129l0.006 0.003 7.039 3.944c0.281 0.16 0.618 0.254 0.977 0.254 0.009 0 0.018-0 0.028-0h0.034c0-1.022-0.007-1.749-0.007-1.749l0.014-1.42z"></path>
  <path fill="#041619" style="fill: var(--color24, #041619)" d="M16.078 22.322h-0.049c-0.002 0-0.004 0-0.007 0-0.244 0-0.473-0.063-0.672-0.175l0.007 0.004-4.72-2.641c-0.071-0.040-0.132-0.086-0.187-0.138l0 0c-0.053-0.052-0.099-0.11-0.136-0.175l-0.002-0.004c-0.054-0.093-0.095-0.201-0.117-0.316l-0.001-0.006c-0.007-0.041-0.007-0.075-0.007-0.116v-5.371c0-0.055 0-0.116 0.007-0.171 0.013-0.144 0.048-0.285 0.104-0.418l-1.274-0.775-1.495-0.83c-0.138 0.288-0.207 0.617-0.207 0.96v8.012c0.009 0.483 0.274 0.902 0.665 1.129l0.006 0.003 7.039 3.944c0.281 0.16 0.618 0.254 0.977 0.254 0.009 0 0.018-0 0.028-0h0.034c0-1.022-0.007-1.749-0.007-1.749l0.014-1.42z"></path>
  <path fill="#3ddb85" style="fill: var(--color20, #3ddb85)" d="M23.567 10.277l-6.7-3.752c-0.284-0.162-0.623-0.257-0.986-0.257-0.377 0-0.729 0.103-1.031 0.283l0.009-0.005-6.63 3.876c-0.307 0.181-0.55 0.443-0.702 0.758l-0.005 0.011 1.502 0.83 1.273 0.775 0.021-0.062c0.014-0.028 0.028-0.055 0.041-0.075 0.028-0.048 0.063-0.096 0.097-0.144 0.090-0.117 0.201-0.213 0.332-0.295l4.443-2.6c0.095-0.053 0.194-0.097 0.298-0.13 0.014-0.007 0.028-0.007 0.041-0.014 0.077-0.021 0.156-0.034 0.235-0.041 0.034 0 0.062-0.007 0.097-0.007h0.090c0.117 0.008 0.233 0.028 0.346 0.062 0.085 0.027 0.166 0.064 0.242 0.11l4.491 2.518c0.156 0.087 0.289 0.194 0.401 0.321l0.001 0.002c0.034 0.041 0.069 0.089 0.104 0.137l0.042 0.062 1.149-0.761 1.557-0.926c-0.201-0.268-0.457-0.508-0.761-0.672z"></path>
  <path fill="#37bf6e" style="fill: var(--color25, #37bf6e)" d="M23.567 10.277l-6.7-3.752c-0.284-0.162-0.623-0.257-0.986-0.257-0.377 0-0.729 0.103-1.031 0.283l0.009-0.005-6.63 3.876c-0.307 0.181-0.55 0.443-0.702 0.758l-0.005 0.011 1.502 0.83 1.273 0.775 0.021-0.062c0.014-0.028 0.028-0.055 0.041-0.075 0.028-0.048 0.063-0.096 0.097-0.144 0.090-0.117 0.201-0.213 0.332-0.295l4.443-2.6c0.095-0.053 0.194-0.097 0.298-0.13 0.014-0.007 0.028-0.007 0.041-0.014 0.077-0.021 0.156-0.034 0.235-0.041 0.034 0 0.062-0.007 0.097-0.007h0.090c0.117 0.008 0.233 0.028 0.346 0.062 0.085 0.027 0.166 0.064 0.242 0.11l4.491 2.518c0.156 0.087 0.289 0.194 0.401 0.321l0.001 0.002c0.034 0.041 0.069 0.089 0.104 0.137l0.042 0.062 1.149-0.761 1.557-0.926c-0.201-0.268-0.457-0.508-0.761-0.672z"></path>
  <path fill="#4285f4" style="fill: var(--color22, #4285f4)" d="M21.615 12.65c0.021 0.034 0.035 0.062 0.055 0.096l0.042 0.082c0.056 0.132 0.089 0.285 0.090 0.445v5.111c0 0.001 0 0.003 0 0.005 0 0.145-0.023 0.285-0.065 0.416l0.003-0.010c-0.007 0.014-0.007 0.027-0.014 0.041-0.015 0.046-0.032 0.085-0.050 0.122l0.002-0.005c-0.014 0.034-0.035 0.068-0.049 0.102-0.027 0.048-0.062 0.096-0.097 0.144-0.056 0.070-0.115 0.133-0.178 0.191l-0.001 0.001c-0.041 0.041-0.090 0.076-0.139 0.11-0.028 0.014-0.048 0.034-0.076 0.048l-4.444 2.599c-0.179 0.103-0.392 0.17-0.619 0.185l-0.004 0v1.42s0 0.727 0.007 1.749c0.356-0.006 0.687-0.108 0.971-0.279l-0.009 0.005 6.63-3.876c0.616-0.363 0.99-1.022 0.983-1.728v-7.628c-0.007-0.37-0.131-0.72-0.339-1.022l-1.558 0.926z"></path>
  <path fill="#3870b2" style="fill: var(--color26, #3870b2)" d="M21.615 12.65c0.021 0.034 0.035 0.062 0.055 0.096l0.042 0.082c0.056 0.132 0.089 0.285 0.090 0.445v5.111c0 0.001 0 0.003 0 0.005 0 0.145-0.023 0.285-0.065 0.416l0.003-0.010c-0.007 0.014-0.007 0.027-0.014 0.041-0.015 0.046-0.032 0.085-0.050 0.122l0.002-0.005c-0.014 0.034-0.035 0.068-0.049 0.102-0.027 0.048-0.062 0.096-0.097 0.144-0.056 0.070-0.115 0.133-0.178 0.191l-0.001 0.001c-0.041 0.041-0.090 0.076-0.139 0.11-0.028 0.014-0.048 0.034-0.076 0.048l-4.444 2.599c-0.179 0.103-0.392 0.17-0.619 0.185l-0.004 0v1.42s0 0.727 0.007 1.749c0.356-0.006 0.687-0.108 0.971-0.279l-0.009 0.005 6.63-3.876c0.616-0.363 0.99-1.022 0.983-1.728v-7.628c-0.007-0.37-0.131-0.72-0.339-1.022l-1.558 0.926z"></path>
  <path fill="#d6f0ff" style="fill: var(--color23, #d6f0ff)" d="M15.539 9.495c-0.104 0.027-0.201 0.075-0.297 0.13l-4.444 2.6 4.443-2.599c0.086-0.054 0.184-0.098 0.29-0.128l0.008-0.002z"></path>
  <path fill="#000" style="fill: var(--color4, #000)" opacity="0.1" d="M15.539 9.495c-0.104 0.027-0.201 0.075-0.297 0.13l-4.444 2.6 4.443-2.599c0.086-0.054 0.184-0.098 0.29-0.128l0.008-0.002z"></path>
  <path fill="#d6f0ff" style="fill: var(--color23, #d6f0ff)" d="M21.47 12.451c-0.112-0.13-0.245-0.237-0.394-0.319l-0.007-0.004-4.492-2.518 4.492 2.518c0.157 0.085 0.29 0.193 0.4 0.321l0.002 0.002z"></path>
  <path fill="#000" style="fill: var(--color4, #000)" opacity="0.1" d="M21.47 12.451c-0.112-0.13-0.245-0.237-0.394-0.319l-0.007-0.004-4.492-2.518 4.492 2.518c0.157 0.085 0.29 0.193 0.4 0.321l0.002 0.002z"></path>
  <path fill="#d6f0ff" style="fill: var(--color23, #d6f0ff)" d="M21.712 12.822c0.018 0.044 0.037 0.101 0.052 0.159l0.003 0.012c-0.014-0.055-0.035-0.11-0.055-0.171z"></path>
  <path fill="#000" style="fill: var(--color4, #000)" opacity="0.1" d="M21.712 12.822c0.018 0.044 0.037 0.101 0.052 0.159l0.003 0.012c-0.014-0.055-0.035-0.11-0.055-0.171z"></path>
  <path fill="#d6f0ff" style="fill: var(--color23, #d6f0ff)" d="M21.739 18.797c0.040-0.12 0.062-0.259 0.062-0.403 0-0.003 0-0.006-0-0.009v0c0 0.002 0 0.005 0 0.008 0 0.144-0.023 0.283-0.065 0.413l0.003-0.009z"></path>
  <path fill="#000" style="fill: var(--color4, #000)" opacity="0.1" d="M21.739 18.797c0.040-0.12 0.062-0.259 0.062-0.403 0-0.003 0-0.006-0-0.009v0c0 0.002 0 0.005 0 0.008 0 0.144-0.023 0.283-0.065 0.413l0.003-0.009z"></path>
</symbol>
<!-- ==================== -->
<!-- STACK Web -->
<!-- ==================== -->
<!-- HTML -->
<symbol id="html" viewBox="0 0 32 32">
  <path fill="#e44d26" style="fill: var(--color15, #e44d26)" d="M27.307 6.273l-2.060 23.079-9.26 2.567-9.235-2.564-2.058-23.083h22.614z"></path>
  <path fill="#f16529" style="fill: var(--color16, #f16529)" d="M16 29.957l7.483-2.075 1.761-19.722h-9.243v21.797z"></path>
  <path fill="#ebebeb" style="fill: var(--color3, #ebebeb)" d="M11.995 13.822h4.005v-2.831h-7.099l0.068 0.759 0.696 7.801h6.335v-2.831h-3.746l-0.259-2.899z"></path>
  <path fill="#ebebeb" style="fill: var(--color3, #ebebeb)" d="M12.633 20.968h-2.842l0.397 4.445 5.799 1.61 0.013-0.004v-2.945l-0.012 0.003-3.153-0.851-0.202-2.258z"></path>
  <path fill="#000" style="fill: var(--color4, #000)" d="M6.797 0h1.439v1.421h1.316v-1.421h1.439v4.304h-1.439v-1.441h-1.316v1.441h-1.439v-4.304h-0z"></path>
  <path fill="#000" style="fill: var(--color4, #000)" d="M12.883 1.427h-1.267v-1.427h3.972v1.427h-1.267v2.877h-1.439v-2.877h-0z"></path>
  <path fill="#000" style="fill: var(--color4, #000)" d="M16.219 0h1.5l0.923 1.512 0.922-1.512h1.501v4.304h-1.433v-2.133l-0.99 1.53h-0.025l-0.991-1.53v2.133h-1.408v-4.304z"></path>
  <path fill="#000" style="fill: var(--color4, #000)" d="M21.78 0h1.439v2.882h2.023v1.423h-3.462v-4.304z"></path>
  <path fill="#fff" style="fill: var(--color5, #fff)" d="M15.99 19.552h3.486l-0.329 3.672-3.157 0.852v2.945l5.804-1.608 0.043-0.478 0.665-7.453 0.069-0.76h-6.581v2.831z"></path>
  <path fill="#fff" style="fill: var(--color5, #fff)" d="M15.99 13.815v0.007h6.838l0.057-0.636 0.129-1.435 0.068-0.759h-7.092v2.824z"></path>
</symbol>
<!-- CSS -->
<symbol id="css" viewBox="0 0 32 32">
  <path fill="#264de4" style="fill: var(--color1, #264de4)" d="M15.986 31.919l-9.235-2.564-2.058-23.083h22.614l-2.060 23.079-9.26 2.567z"></path>
  <path fill="#2965f1" style="fill: var(--color2, #2965f1)" d="M23.483 27.882l1.761-19.722h-9.243v21.797l7.483-2.075z"></path>
  <path fill="#ebebeb" style="fill: var(--color3, #ebebeb)" d="M9.411 16.721l0.254 2.831h6.335v-2.831h-6.589z"></path>
  <path fill="#ebebeb" style="fill: var(--color3, #ebebeb)" d="M8.901 10.991l0.257 2.831h6.841v-2.831h-7.099z"></path>
  <path fill="#ebebeb" style="fill: var(--color3, #ebebeb)" d="M16 24.074l-0.012 0.003-3.153-0.851-0.202-2.258h-2.842l0.397 4.445 5.799 1.61 0.013-0.004v-2.945z"></path>
  <path fill="#000" style="fill: var(--color4, #000)" d="M10.015 0h3.429v1.434h-1.995v1.434h1.995v1.434h-3.429v-4.302z"></path>
  <path fill="#000" style="fill: var(--color4, #000)" d="M14.13 0h3.429v1.247h-1.995v0.249h1.995v2.868h-3.429v-1.309h1.995v-0.249h-1.995v-2.805z"></path>
  <path fill="#000" style="fill: var(--color4, #000)" d="M18.244 0h3.429v1.247h-1.995v0.249h1.995v2.868h-3.429v-1.309h1.995v-0.249h-1.995v-2.805z"></path>
  <path fill="#fff" style="fill: var(--color5, #fff)" d="M22.571 16.721l0.511-5.73h-7.092v2.831h3.989l-0.258 2.899h-3.732v2.831h3.486l-0.329 3.672-3.157 0.852v2.945l5.804-1.608 0.043-0.478 0.665-7.453 0.069-0.76z"></path>
</symbol>
<!-- JavaScript -->
<symbol id="javascript" viewBox="0 0 32 32">
  <path fill="#f0db4f" style="fill: var(--color17, #f0db4f)" d="M0.352 0.352h31.296v31.296h-31.296z"></path>
  <path fill="#323330" style="fill: var(--color18, #323330)" d="M29.087 24.184c-0.229-1.428-1.16-2.627-3.918-3.745-0.958-0.44-2.026-0.756-2.344-1.482-0.113-0.422-0.128-0.66-0.056-0.916 0.205-0.83 1.196-1.089 1.981-0.851 0.506 0.169 0.985 0.559 1.273 1.181 1.351-0.875 1.348-0.869 2.291-1.47-0.345-0.535-0.529-0.782-0.756-1.011-0.812-0.907-1.919-1.374-3.689-1.339l-0.922 0.119c-0.884 0.223-1.726 0.687-2.219 1.309-1.482 1.681-1.059 4.623 0.744 5.834 1.776 1.333 4.385 1.636 4.718 2.883 0.324 1.526-1.122 2.020-2.558 1.845-1.059-0.22-1.648-0.759-2.285-1.737-1.172 0.678-1.172 0.678-2.377 1.371 0.286 0.625 0.586 0.907 1.065 1.449 2.267 2.3 7.94 2.186 8.957-1.294 0.041-0.119 0.315-0.916 0.095-2.145zM17.366 14.736h-2.927l-0.012 7.568c0 1.61 0.083 3.085-0.178 3.537-0.428 0.889-1.538 0.779-2.044 0.607-0.515-0.253-0.777-0.613-1.080-1.121-0.083-0.146-0.146-0.259-0.167-0.268l-2.38 1.457c0.396 0.812 0.979 1.517 1.726 1.975 1.116 0.669 2.615 0.875 4.183 0.515 1.021-0.297 1.901-0.913 2.362-1.85 0.666-1.229 0.523-2.716 0.517-4.361 0.015-2.684 0-5.367 0-8.059z"></path>
</symbol>
<!-- TailwindCss -->
<symbol id="tailwindcss" viewBox="0 0 32 32">
  <path fill="#38bdf8" style="fill: var(--color28, #38bdf8)" d="M16.001 6.401c-4.267 0-6.933 2.132-8 6.399 1.599-2.133 3.467-2.933 5.599-2.399 1.218 0.303 2.088 1.187 3.052 2.165 1.569 1.592 3.384 3.434 7.349 3.434 4.267 0 6.933-2.133 8-6.401-1.6 2.134-3.467 2.934-5.6 2.401-1.218-0.304-2.087-1.187-3.052-2.165-1.567-1.592-3.383-3.434-7.349-3.434zM8.001 16c-4.266 0-6.933 2.133-8 6.401 1.599-2.134 3.466-2.934 5.599-2.401 1.218 0.304 2.088 1.186 3.052 2.165 1.569 1.592 3.384 3.434 7.349 3.434 4.267 0 6.933-2.133 8-6.399-1.6 2.133-3.467 2.933-5.6 2.399-1.218-0.303-2.087-1.186-3.052-2.165-1.568-1.592-3.383-3.434-7.348-3.434z"></path>
</symbol>
<!-- React -->
<symbol id="react" viewBox="0 0 32 32">
  <path fill="#61dafb" style="fill: var(--color27, #61dafb)" d="M18.85 16c0 1.574-1.276 2.85-2.85 2.85s-2.85-1.276-2.85-2.85c0-1.574 1.276-2.85 2.85-2.85s2.85 1.276 2.85 2.85z"></path>
  <path fill="#61dafb" style="fill: var(--color27, #61dafb)" d="M26.825 11.3c-0.55-0.2-1.125-0.4-1.725-0.575 0.15-0.6 0.275-1.2 0.375-1.775 0.525-3.3-0.050-5.625-1.65-6.525-0.475-0.275-1-0.4-1.6-0.4-1.75 0-3.975 1.3-6.225 3.475-2.25-2.175-4.475-3.475-6.225-3.475-0.6 0-1.125 0.125-1.6 0.4-1.6 0.925-2.175 3.25-1.65 6.525 0.1 0.575 0.225 1.175 0.375 1.775-0.6 0.175-1.175 0.35-1.725 0.575-3.125 1.2-4.825 2.85-4.825 4.7s1.725 3.5 4.825 4.7c0.55 0.2 1.125 0.4 1.725 0.575-0.15 0.6-0.275 1.2-0.375 1.775-0.525 3.3 0.050 5.625 1.65 6.525 0.475 0.275 1 0.4 1.6 0.4 1.775 0 4-1.3 6.225-3.475 2.25 2.175 4.475 3.475 6.225 3.475 0.6 0 1.125-0.125 1.6-0.4 1.6-0.925 2.175-3.25 1.65-6.525-0.1-0.575-0.225-1.175-0.375-1.775 0.6-0.175 1.175-0.35 1.725-0.575 3.125-1.2 4.825-2.85 4.825-4.7s-1.7-3.5-4.825-4.7zM23.125 3.675c1.025 0.6 1.375 2.45 0.95 5.075-0.075 0.525-0.2 1.075-0.35 1.65-1.3-0.3-2.675-0.5-4.125-0.625-0.85-1.2-1.725-2.275-2.6-3.25 1.85-1.825 3.725-3.075 5.25-3.075 0.325 0 0.625 0.075 0.875 0.225zM20.325 18.5c-0.45 0.8-0.975 1.6-1.525 2.4-0.925 0.075-1.85 0.1-2.8 0.1-0.975 0-1.9-0.025-2.8-0.1-0.55-0.8-1.050-1.6-1.5-2.4-0.475-0.825-0.925-1.675-1.325-2.5 0.4-0.825 0.85-1.675 1.325-2.5 0.45-0.8 0.975-1.6 1.525-2.4 0.925-0.075 1.85-0.1 2.8-0.1 0.975 0 1.9 0.025 2.8 0.1 0.55 0.8 1.050 1.6 1.5 2.4 0.475 0.825 0.925 1.675 1.325 2.5-0.425 0.825-0.85 1.65-1.325 2.5zM22.4 17.675c0.375 0.875 0.675 1.725 0.95 2.575-0.85 0.2-1.75 0.35-2.7 0.475 0.3-0.475 0.625-0.975 0.9-1.5 0.3-0.525 0.575-1.050 0.85-1.55zM16 24.45c-0.6-0.65-1.175-1.35-1.725-2.075 0.575 0.025 1.15 0.050 1.725 0.050s1.15-0.025 1.725-0.050c-0.55 0.725-1.125 1.425-1.725 2.075zM11.35 20.7c-0.95-0.125-1.85-0.275-2.7-0.475 0.275-0.825 0.575-1.7 0.95-2.575 0.275 0.5 0.55 1.025 0.85 1.525 0.3 0.55 0.6 1.025 0.9 1.525zM9.6 14.325c-0.375-0.875-0.675-1.725-0.95-2.575 0.85-0.2 1.75-0.35 2.7-0.475-0.3 0.475-0.625 0.975-0.9 1.5-0.3 0.525-0.575 1.050-0.85 1.55zM16 7.55c0.6 0.65 1.175 1.35 1.725 2.075-0.575-0.025-1.15-0.050-1.725-0.050s-1.15 0.025-1.725 0.050c0.55-0.725 1.125-1.425 1.725-2.075zM21.55 12.8l-0.9-1.5c0.95 0.125 1.85 0.275 2.7 0.475-0.275 0.825-0.575 1.7-0.95 2.575-0.275-0.525-0.55-1.050-0.85-1.55zM7.925 8.75c-0.425-2.625-0.075-4.475 0.95-5.075 0.25-0.15 0.55-0.225 0.875-0.225 1.5 0 3.375 1.225 5.25 3.075-0.875 0.95-1.75 2.050-2.6 3.25-1.45 0.125-2.825 0.35-4.125 0.625-0.15-0.575-0.25-1.125-0.35-1.65zM1.75 16c0-1.175 1.425-2.425 3.925-3.35 0.5-0.2 1.050-0.375 1.6-0.525 0.4 1.25 0.9 2.575 1.5 3.9-0.6 1.325-1.125 2.625-1.5 3.875-3.45-1-5.525-2.5-5.525-3.9zM8.875 28.325c-1.025-0.6-1.375-2.45-0.95-5.075 0.075-0.525 0.2-1.075 0.35-1.65 1.3 0.3 2.675 0.5 4.125 0.625 0.85 1.2 1.725 2.275 2.6 3.25-1.85 1.825-3.725 3.075-5.25 3.075-0.325 0-0.625-0.075-0.875-0.225zM24.075 23.25c0.425 2.625 0.075 4.475-0.95 5.075-0.25 0.15-0.55 0.225-0.875 0.225-1.5 0-3.375-1.225-5.25-3.075 0.875-0.95 1.75-2.050 2.6-3.25 1.45-0.125 2.825-0.35 4.125-0.625 0.15 0.575 0.25 1.125 0.35 1.65zM26.325 19.35c-0.5 0.2-1.050 0.375-1.6 0.525-0.4-1.25-0.9-2.575-1.5-3.9 0.6-1.325 1.125-2.625 1.5-3.875 3.45 1 5.525 2.5 5.525 3.9 0 1.175-1.45 2.425-3.925 3.35z"></path>
</symbol>
<!-- ==================== -->
<!-- STACK DB -->
<!-- ==================== -->
<!-- SQL -->
<symbol id="sql" viewBox="0 0 32 32">
  <!-- Fondo circular azul SQL -->
  <circle cx="16" cy="16" r="14" fill="#336791"/>
  <!-- Líneas blancas para el texto estilizado "SQL" -->
  <path 
   d="M16 10.667c1.473 0 2.667 1.194 2.667 2.667v5.333c0 1.473-1.194 2.667-2.667 2.667s-2.667-1.194-2.667-2.667v-5.333c0-1.473 1.194-2.667 2.667-2.667z" 
   stroke="#FFFFFF" 
   stroke-width="2" 
   stroke-linecap="round" 
   stroke-linejoin="round" 
   fill="none"
  /> <path 
   d="M22.667 10.667v10.667h5.333" 
   stroke="#FFFFFF" 
   stroke-width="2" 
   stroke-linecap="round" 
   stroke-linejoin="round" 
   fill="none"
  /> <path 
   d="M17.333 20l1.333 1.333" 
   stroke="#FFFFFF" 
   stroke-width="2" 
   stroke-linecap="round" 
   stroke-linejoin="round" 
   fill="none"
  /> <path 
   d="M4 20c0 0.736 0.597 1.333 1.333 1.333h2.667c0.736 0 1.333-0.597 1.333-1.333v-2.667c0-0.736-0.597-1.333-1.333-1.333h-2.667c-0.736 0-1.333-0.597-1.333-1.333v-2.667c0-0.736 0.597-1.333 1.333-1.333h2.667c0.736 0 1.333 0.597 1.333 1.333" 
   stroke="#FFFFFF" 
   stroke-width="2" 
   stroke-linecap="round" 
   stroke-linejoin="round" 
   fill="none"
  /> 
</symbol>
<!-- SQLite -->
<symbol id="sqlite" viewBox="0 0 32 32">
  <path fill="#0b7fcc" style="fill: var(--color4, #0b7fcc)" d="M17.375 24.794c-0.015-0.183-0.023-0.3-0.023-0.3s-0.552-3.722-1.209-4.834c-0.104-0.177 0.011-0.898 0.302-1.97 0.17 0.292 0.885 1.548 1.029 1.953 0.162 0.456 0.195 0.587 0.195 0.587s-0.392-2.021-1.036-3.199c0.236-0.813 0.407-1.334 0.588-1.851l-0.087 0.284c0.243 0.428 0.828 1.465 0.957 1.825 0.026 0.073 0.048 0.136 0.067 0.194 0.006-0.034 0.012-0.069 0.018-0.104-0.148-0.626-0.438-1.715-0.834-2.521 0.88-4.582 3.883-10.706 6.96-13.438h-20.078c-1.347 0-2.447 1.101-2.447 2.447v22.142c0 1.346 1.102 2.447 2.447 2.447h13.224c-0.064-0.728-0.1-1.576-0.1-2.432 0-0.433 0.009-0.864 0.028-1.293l-0.002 0.061z"></path>
  <path fill="#0b7fcc" style="fill: var(--color5, #0b7fcc)" d="M16.444 17.691c0.17 0.292 0.885 1.547 1.029 1.952 0.162 0.456 0.195 0.587 0.195 0.587s-0.392-2.021-1.036-3.199c0.237-0.817 0.408-1.339 0.589-1.856l-0.088 0.288c0.222 0.392 0.73 1.292 0.913 1.718l0.020-0.24c-0.162-0.624-0.408-1.441-0.724-2.082 0.811-4.218 3.42-9.742 6.232-12.725h-19.349c-0.957 0.001-1.732 0.776-1.734 1.733v20.528c4.382-1.683 9.666-3.22 14.214-3.154-0.168-0.651-0.36-1.24-0.563-1.581-0.104-0.177 0.011-0.899 0.302-1.97z"></path>
  <path fill="#003956" style="fill: var(--color6, #003956)" d="M28.988 0.695c-1.375-1.226-3.041-0.733-4.683 0.725-0.258 0.231-0.496 0.465-0.722 0.708l-0.006 0.007c-2.813 2.981-5.421 8.506-6.232 12.724 0.316 0.641 0.563 1.458 0.724 2.082 0.042 0.16 0.080 0.311 0.11 0.439 0.071 0.302 0.109 0.499 0.109 0.499s-0.025-0.096-0.129-0.395c-0.020-0.058-0.042-0.121-0.067-0.193-0.011-0.031-0.026-0.069-0.043-0.108-0.183-0.426-0.691-1.326-0.914-1.717-0.191 0.563-0.359 1.090-0.501 1.566 0.645 1.179 1.037 3.199 1.037 3.199s-0.034-0.131-0.195-0.587c-0.145-0.405-0.86-1.66-1.029-1.952-0.291 1.070-0.406 1.793-0.302 1.97 0.202 0.34 0.393 0.93 0.563 1.581 0.381 1.467 0.646 3.253 0.646 3.253s0.008 0.117 0.023 0.3c-0.016 0.367-0.026 0.798-0.026 1.231 0 0.856 0.036 1.703 0.107 2.541l-0.007-0.109c0.126 1.527 0.363 2.841 0.666 3.543l0.207-0.112c-0.445-1.384-0.626-3.198-0.547-5.289 0.12-3.198 0.855-7.054 2.214-11.072 2.298-6.067 5.485-10.934 8.401-13.259-2.658 2.401-6.256 10.171-7.333 13.049-1.205 3.223-2.059 6.246-2.575 9.143 0.887-2.716 3.762-3.883 3.762-3.883s1.409-1.739 3.057-4.222c-0.988 0.226-2.607 0.611-3.149 0.838-0.8 0.336-1.017 0.45-1.017 0.45s2.593-1.578 4.817-2.293c3.058-4.818 6.39-11.662 3.035-14.655z"></path>
</symbol>
<!-- MariaDB -->
<symbol id="mariadb" viewBox="0 0 48 32">
  <path fill="#002b64" style="fill: var(--color1, #002b64)" d="M47.133 0.001c-0.744 0.024-0.508 0.238-2.115 0.633-1.622 0.399-3.604 0.277-5.351 1.010-5.215 2.187-6.262 9.663-11.003 12.34-3.544 2.002-7.119 2.161-10.334 3.169-2.113 0.662-4.423 2.021-6.337 3.67-1.486 1.281-1.524 2.407-3.077 4.013-1.66 1.718-6.599 0.029-8.837 2.659 0.721 0.729 1.037 0.933 2.458 0.744-0.294 0.558-2.028 1.027-1.689 1.848 0.357 0.863 4.55 1.448 8.361-0.853 1.775-1.072 3.189-2.616 5.953-2.985 3.577-0.477 7.698 0.306 11.839 0.903-0.614 1.831-1.847 3.048-2.834 4.506-0.306 0.329 0.614 0.366 1.664 0.167 1.888-0.467 3.249-0.843 4.674-1.672 1.751-1.019 2.016-3.632 4.164-4.197 1.197 1.839 4.452 2.274 6.471 0.803-1.772-0.502-2.262-4.274-1.664-5.936 0.567-1.573 1.127-4.090 1.697-6.17 0.613-2.234 0.839-5.049 1.58-6.187 1.116-1.712 2.348-2.3 3.418-3.265s2.050-1.905 2.018-4.114c-0.010-0.711-0.378-1.108-1.055-1.086v0 0z"></path>
  <path fill="#fff" style="fill: var(--color2, #fff)" d="M1.618 29.93c2.714 0.389 4.364 0 6.544-0.945 1.854-0.804 3.645-2.462 5.835-3.165 3.216-1.032 6.743 0.001 10.181 0.207 0.837 0.050 1.669 0.051 2.49-0.039 1.281-0.787 1.254-3.731 2.501-4.001-0.037 4.131-1.73 6.606-3.501 9.003 3.733-0.659 5.966-2.818 7.475-5.702 0.458-0.874 0.849-1.815 1.194-2.801 0.534 0.41 0.231 1.658 0.5 2.334 2.571-1.432 4.043-4.701 5.018-8.007 1.128-3.826 1.59-7.7 2.317-8.832 0.71-1.105 1.815-1.786 2.824-2.494 1.146-0.804 2.168-1.642 2.345-3.175-1.209-0.112-1.488-0.391-1.667-1.001-0.605 0.341-1.162 0.414-1.79 0.433-0.546 0.017-1.145-0.008-1.877 0.067-6.054 0.622-6.823 7.294-10.703 11.077-0.282 0.275-0.588 0.532-0.91 0.772-1.359 1.013-3.026 1.736-4.559 2.322-2.481 0.948-4.841 1.016-7.169 1.834-1.709 0.601-3.446 1.472-4.849 2.433-0.351 0.24-0.682 0.486-0.986 0.735-0.824 0.674-1.364 1.422-1.888 2.191-0.539 0.793-1.060 1.608-1.854 2.387-1.286 1.263-6.093 0.368-7.785 1.54-0.189 0.13-0.338 0.287-0.44 0.475 0.923 0.419 1.54 0.162 2.602 0.28 0.139 1.008-2.191 1.607-1.847 2.071v0 0z"></path>
  <path fill="#fff" style="fill: var(--color2, #fff)" d="M38.294 22.668c0.072 1.156 0.743 3.451 1.336 4.008-1.161 0.282-3.16-0.184-3.673-1.003 0.264-1.182 1.635-2.263 2.337-3.005v0 0z"></path>
  <path fill="#002b64" style="fill: var(--color1, #002b64)" d="M39.994 4.317c0.857 0.744 2.655 0.147 2.334-1.333-1.332-0.11-2.103 0.342-2.334 1.333v0 0z"></path>
  <path fill="#002b64" style="fill: var(--color1, #002b64)" d="M45.968 2.587c-0.228 0.478-0.664 1.095-0.664 2.312-0.002 0.209-0.159 0.352-0.161 0.030 0.012-1.189 0.327-1.704 0.661-2.38 0.155-0.277 0.249-0.163 0.165 0.038v0 0z"></path>
  <path fill="#002b64" style="fill: var(--color1, #002b64)" d="M45.739 2.407c-0.269 0.456-0.916 1.288-1.023 2.501-0.020 0.208-0.189 0.337-0.163 0.015 0.117-1.184 0.634-1.924 1.027-2.568 0.178-0.262 0.262-0.14 0.16 0.052v0 0z"></path>
  <path fill="#002b64" style="fill: var(--color1, #002b64)" d="M45.53 2.168c-0.306 0.432-1.303 1.431-1.511 2.63-0.037 0.205-0.217 0.32-0.164 0.002 0.216-1.17 1.075-2.090 1.52-2.698 0.2-0.246 0.273-0.118 0.155 0.066v0 0z"></path>
  <path fill="#002b64" style="fill: var(--color1, #002b64)" d="M45.343 1.902c-0.364 0.384-1.552 1.659-1.927 2.817-0.066 0.198-0.26 0.286-0.163-0.021 0.378-1.128 1.418-2.343 1.945-2.882 0.233-0.216 0.287-0.078 0.144 0.087v0 0z"></path>
</symbol>
<!-- MySQL -->
<symbol id="mysql" viewBox="0 0 32 32">
  <path fill="#00618a" style="fill: var(--color3, #00618a)" d="M29.422 24.561c-1.743-0.048-3.074 0.115-4.213 0.595-0.323 0.137-0.839 0.14-0.892 0.545 0.178 0.186 0.205 0.465 0.347 0.694 0.271 0.439 0.73 1.028 1.14 1.338 0.447 0.337 0.908 0.698 1.388 0.99 0.854 0.52 1.806 0.817 2.626 1.338 0.485 0.308 0.965 0.694 1.438 1.041 0.233 0.171 0.391 0.438 0.693 0.545v-0.049c-0.159-0.203-0.2-0.483-0.347-0.694l-0.645-0.645c-0.63-0.836-1.43-1.57-2.279-2.18-0.678-0.487-2.195-1.145-2.477-1.933l-0.050-0.050c0.48-0.055 1.043-0.229 1.487-0.348 0.745-0.199 1.411-0.148 2.18-0.347l1.041-0.297v-0.198c-0.389-0.398-0.666-0.927-1.090-1.288-1.11-0.945-2.321-1.889-3.568-2.676-0.692-0.436-1.546-0.721-2.279-1.091-0.247-0.124-0.68-0.189-0.843-0.396-0.385-0.49-0.595-1.112-0.892-1.684-0.622-1.198-1.233-2.506-1.784-3.767-0.376-0.859-0.621-1.707-1.090-2.477-2.25-3.699-4.672-5.933-8.424-8.127-0.799-0.467-1.76-0.651-2.775-0.893l-1.636-0.099c-0.333-0.139-0.679-0.546-0.991-0.744-1.243-0.786-4.431-2.494-5.352-0.248-0.581 1.417 0.869 2.8 1.388 3.518 0.364 0.503 0.83 1.068 1.090 1.635 0.172 0.373 0.201 0.746 0.348 1.14 0.36 0.971 0.674 2.027 1.14 2.924 0.235 0.454 0.495 0.932 0.793 1.338 0.182 0.249 0.495 0.36 0.545 0.743-0.307 0.429-0.324 1.094-0.496 1.636-0.774 2.443-0.481 5.478 0.644 7.284 0.346 0.556 1.16 1.745 2.279 1.289 0.979-0.399 0.761-1.635 1.041-2.726 0.063-0.247 0.024-0.429 0.149-0.595v0.050l0.893 1.783c0.66 1.064 1.831 2.175 2.824 2.925 0.515 0.389 0.92 1.061 1.586 1.288v-0.050h-0.050c-0.129-0.201-0.331-0.284-0.495-0.445-0.388-0.381-0.819-0.854-1.14-1.289-0.903-1.226-1.701-2.567-2.428-3.964-0.348-0.667-0.649-1.402-0.943-2.081-0.113-0.262-0.111-0.658-0.347-0.793-0.32 0.497-0.793 0.899-1.041 1.486-0.396 0.939-0.447 2.084-0.594 3.27-0.087 0.031-0.049 0.010-0.099 0.050-0.691-0.167-0.933-0.877-1.189-1.487-0.649-1.541-0.769-4.023-0.198-5.798 0.147-0.459 0.816-1.904 0.545-2.329-0.129-0.423-0.555-0.668-0.793-0.991-0.295-0.399-0.589-0.926-0.793-1.388-0.531-1.201-0.778-2.551-1.338-3.765-0.268-0.581-0.719-1.169-1.090-1.684-0.411-0.572-0.871-0.994-1.19-1.686-0.113-0.246-0.266-0.64-0.099-0.891 0.054-0.171 0.129-0.242 0.298-0.298 0.287-0.222 1.088 0.074 1.387 0.198 0.795 0.33 1.458 0.645 2.132 1.091 0.322 0.214 0.649 0.628 1.040 0.743h0.446c0.697 0.16 1.479 0.049 2.131 0.247 1.152 0.351 2.184 0.896 3.122 1.487 2.855 1.804 5.192 4.37 6.789 7.434 0.257 0.493 0.368 0.963 0.595 1.486 0.456 1.055 1.031 2.14 1.485 3.172 0.454 1.028 0.895 2.067 1.537 2.924 0.337 0.45 1.638 0.692 2.229 0.942 0.415 0.175 1.095 0.358 1.487 0.595 0.75 0.452 1.477 0.991 2.181 1.486 0.351 0.248 1.433 0.792 1.486 1.239zM7.271 5.681c-0.363-0.007-0.62 0.039-0.891 0.099v0.050h0.049c0.174 0.356 0.479 0.585 0.694 0.891l0.495 1.041 0.050-0.049c0.307-0.217 0.447-0.563 0.445-1.091-0.123-0.13-0.141-0.291-0.248-0.446-0.141-0.206-0.415-0.322-0.594-0.495z"></path>
</symbol>
<!-- ==================== -->
<!-- STACK Otros -->
<!-- ==================== -->
<!-- Git -->
<symbol id="git" viewBox="0 0 32 32">
  <!-- Fondo rombo naranja -->
  <path fill="#F05033" d="M30.713 14.713l-13.426-13.426c-0.378-0.378-0.885-0.572-1.386-0.572s-1.007 0.194-1.386 0.572l-3.261 3.261 2.197 2.197c0.439-0.164 0.918-0.257 1.419-0.257 2.217 0 4.017 1.8 4.017 4.017 0 0.501-0.093 0.981-0.257 1.419l2.43 2.43c0.439-0.164 0.918-0.257 1.419-0.257 2.217 0 4.017 1.8 4.017 4.017s-1.8 4.017-4.017 4.017-4.017-1.8-4.017-4.017c0-0.501 0.093-0.981 0.257-1.419l-2.43-2.43c-0.439 0.164-0.918 0.257-1.419 0.257-0.501 0-0.981-0.093-1.419-0.257l-1.636 1.636c0.164 0.439 0.257 0.918 0.257 1.419 0 2.217-1.8 4.017-4.017 4.017s-4.017-1.8-4.017-4.017c0-2.217 1.8-4.017 4.017-4.017 0.501 0 0.981 0.093 1.419 0.257l1.636-1.636-4.594-4.594-6.522 6.522c-0.378 0.378-0.572 0.885-0.572 1.386s0.194 1.007 0.572 1.386l13.426 13.426c0.378 0.378 0.885 0.572 1.386 0.572s1.007-0.194 1.386-0.572l13.426-13.426c0.378-0.378 0.572-0.885 0.572-1.386s-0.194-1.007-0.572-1.386z"/>
  <!-- Líneas y nodos -->
  <g fill="#FFFFFF">
    <circle cx="16" cy="10.33" r="1.67"/>
    <circle cx="16" cy="21.67" r="1.67"/>
    <circle cx="22.67" cy="16" r="1.67"/>
    <path d="M16 12v8" stroke="#FFFFFF" stroke-width="1.4" stroke-linecap="round" stroke-linejoin="round"/>
    <path d="M17.2 11.2l3.6 3.6" stroke="#FFFFFF" stroke-width="1.4" stroke-linecap="round" stroke-linejoin="round"/>
  </g>
</symbol>
<!-- Github -->
<symbol id="github-2" viewBox="0 0 1024 1024">
    <path fill-rule="evenodd" clip-rule="evenodd" d="M8 0C3.58 0 0 3.58 0 8C0 11.54 2.29 14.53 5.47 15.59C5.87 15.66 6.02 15.42 6.02 15.21C6.02 15.02 6.01 14.39 6.01 13.72C4 14.09 3.48 13.23 3.32 12.78C3.23 12.55 2.84 11.84 2.5 11.65C2.22 11.5 1.82 11.13 2.49 11.12C3.12 11.11 3.57 11.7 3.72 11.94C4.44 13.15 5.59 12.81 6.05 12.6C6.12 12.08 6.33 11.73 6.56 11.53C4.78 11.33 2.92 10.64 2.92 7.58C2.92 6.71 3.23 5.99 3.74 5.43C3.66 5.23 3.38 4.41 3.82 3.31C3.82 3.31 4.49 3.1 6.02 4.13C6.66 3.95 7.34 3.86 8.02 3.86C8.7 3.86 9.38 3.95 10.02 4.13C11.55 3.09 12.22 3.31 12.22 3.31C12.66 4.41 12.38 5.23 12.3 5.43C12.81 5.99 13.12 6.7 13.12 7.58C13.12 10.65 11.25 11.33 9.47 11.53C9.76 11.78 10.01 12.26 10.01 13.01C10.01 14.08 10 14.94 10 15.21C10 15.42 10.15 15.67 10.55 15.59C13.71 14.53 16 11.53 16 8C16 3.58 12.42 0 8 0Z" transform="scale(64)" fill="#FFFFFF"/>
  </symbol>
<!-- Docker -->
<symbol id="docker" viewBox="0 0 32 32">
  <path fill="#3a4d54" style="fill: var(--color6, #3a4d54)" d="M18.45 12.7h2.825v2.875h1.425c0.65 0 1.325-0.125 1.95-0.325 0.3-0.1 0.65-0.25 0.95-0.425-0.4-0.525-0.6-1.175-0.65-1.825-0.075-0.875 0.1-2.025 0.7-2.7l0.3-0.35 0.35 0.275c0.9 0.725 1.625 1.7 1.775 2.85 1.075-0.325 2.325-0.25 3.275 0.3l0.375 0.225-0.2 0.4c-0.8 1.55-2.475 2.050-4.1 1.95-2.45 6.075-7.75 8.95-14.2 8.95-3.325 0-6.375-1.25-8.125-4.2l-0.025-0.050-0.25-0.525c-0.6-1.3-0.775-2.725-0.65-4.15l0.050-0.425h2.4v-2.85h2.825v-2.8h5.625v-2.825h3.375v5.625z"></path>
  <path fill="#00aada" style="fill: var(--color7, #00aada)" d="M27.6 13.775c0.2-1.475-0.9-2.625-1.6-3.175-0.775 0.9-0.9 3.3 0.325 4.3-0.7 0.6-2.125 1.175-3.625 1.175h-18.050c-0.15 1.55 0.125 2.975 0.75 4.2l0.2 0.375c0.125 0.225 0.275 0.425 0.425 0.65 0.75 0.050 1.425 0.075 2.050 0.050 1.225-0.025 2.225-0.175 3-0.425 0.125-0.050 0.225 0.025 0.275 0.125 0.050 0.125-0.025 0.225-0.125 0.275-0.1 0.025-0.2 0.075-0.325 0.1-0.6 0.175-1.25 0.275-2.075 0.325h-0.15c-0.325 0.025-0.675 0.025-1.050 0.025-0.4 0-0.775 0-1.225-0.025 1.5 1.7 3.85 2.7 6.8 2.7 6.25 0 11.55-2.775 13.875-8.975 1.675 0.175 3.275-0.25 4-1.675-1.125-0.675-2.625-0.45-3.475-0.025z"></path>
  <path fill="#28b8eb" style="fill: var(--color8, #28b8eb)" d="M27.6 13.775c0.2-1.475-0.9-2.625-1.6-3.175-0.775 0.9-0.9 3.3 0.325 4.3-0.7 0.6-2.125 1.175-3.625 1.175h-17c-0.075 2.375 0.8 4.175 2.375 5.25 1.225-0.025 2.225-0.175 3-0.425 0.125-0.050 0.225 0.025 0.275 0.125 0.050 0.125-0.025 0.225-0.125 0.275-0.1 0.025-0.2 0.075-0.325 0.1-0.6 0.175-1.3 0.3-2.125 0.35l-0.025-0.025c2.125 1.1 5.2 1.075 8.75-0.275 3.95-1.525 7.65-4.425 10.225-7.725-0.050 0.025-0.1 0.025-0.125 0.050z"></path>
  <path fill="#028bb8" style="fill: var(--color9, #028bb8)" d="M4.675 17.95c0.1 0.825 0.35 1.6 0.725 2.325l0.2 0.375c0.125 0.225 0.275 0.425 0.425 0.65 0.75 0.050 1.425 0.075 2.050 0.050 1.225-0.025 2.225-0.175 3-0.425 0.125-0.050 0.225 0.025 0.275 0.125 0.050 0.125-0.025 0.225-0.125 0.275-0.1 0.025-0.2 0.075-0.325 0.1-0.6 0.175-1.3 0.3-2.125 0.35h-0.1c-0.325 0.025-0.675 0.025-1.025 0.025-0.4 0-0.8 0-1.225-0.025 1.5 1.7 3.875 2.7 6.825 2.7 5.35 0 10-2.025 12.7-6.5h-21.275v-0.025z"></path>
  <path fill="#019bc6" style="fill: var(--color10, #019bc6)" d="M5.875 17.95c0.325 1.45 1.075 2.6 2.2 3.375 1.225-0.025 2.225-0.175 3-0.425 0.125-0.050 0.225 0.025 0.275 0.125 0.050 0.125-0.025 0.225-0.125 0.275-0.1 0.025-0.2 0.075-0.325 0.1-0.6 0.175-1.3 0.3-2.15 0.35 2.125 1.1 5.2 1.075 8.725-0.275 2.125-0.825 4.2-2.050 6.050-3.525h-17.65z"></path>
  <path fill="#00acd3" style="fill: var(--color11, #00acd3)" d="M7.1 13.175h2.45v2.45h-2.45v-2.45zM7.3 13.375h0.2v2.025h-0.2v-2.025zM7.65 13.375h0.2v2.025h-0.2v-2.025zM8.025 13.375h0.2v2.025h-0.2v-2.025zM8.4 13.375h0.2v2.025h-0.2v-2.025zM8.775 13.375h0.2v2.025h-0.2v-2.025zM9.15 13.375h0.2v2.025h-0.2v-2.025zM9.9 10.375h2.45v2.45h-2.45v-2.45zM10.125 10.575h0.2v2.025h-0.2v-2.025zM10.475 10.575h0.2v2.025h-0.2v-2.025zM10.85 10.575h0.2v2.025h-0.2v-2.025zM11.225 10.575h0.2v2.025h-0.2v-2.025zM11.575 10.575h0.2v2.025h-0.2v-2.025zM11.95 10.575h0.2v2.025h-0.2v-2.025z"></path>
  <path fill="#23c2ee" style="fill: var(--color12, #23c2ee)" d="M9.9 13.175v2.45h2.45v-2.45h-2.45zM10.125 13.375h0.2v2.025h-0.2v-2.025zM10.475 13.375h0.2v2.025h-0.2v-2.025zM10.85 13.375h0.2v2.025h-0.2v-2.025zM11.225 13.375h0.2v2.025h-0.2v-2.025zM11.575 13.375h0.2v2.025h-0.2v-2.025zM11.95 13.375h0.2v2.025h-0.2v-2.025z"></path>
  <path fill="#00acd3" style="fill: var(--color11, #00acd3)" d="M12.725 13.175v2.45h2.45v-2.45h-2.45zM12.925 13.375h0.2v2.025h-0.2v-2.025zM13.3 13.375h0.2v2.025h-0.2v-2.025zM13.675 13.375h0.2v2.025h-0.2v-2.025zM14.025 13.375h0.2v2.025h-0.2v-2.025zM14.4 13.375h0.2v2.025h-0.2v-2.025zM14.775 13.375h0.2v2.025h-0.2v-2.025z"></path>
  <path fill="#23c2ee" style="fill: var(--color12, #23c2ee)" d="M12.725 10.375h2.45v2.45h-2.45v-2.45zM12.925 10.575h0.2v2.025h-0.2v-2.025zM13.3 10.575h0.2v2.025h-0.2v-2.025zM13.675 10.575h0.2v2.025h-0.2v-2.025zM14.025 10.575h0.2v2.025h-0.2v-2.025zM14.4 10.575h0.2v2.025h-0.2v-2.025zM14.775 10.575h0.2v2.025h-0.2v-2.025zM15.55 13.175h2.45v2.45h-2.45v-2.45zM15.75 13.375h0.2v2.025h-0.2v-2.025zM16.125 13.375h0.2v2.025h-0.2v-2.025zM16.475 13.375h0.2v2.025h-0.2v-2.025zM16.85 13.375h0.2v2.025h-0.2v-2.025zM17.225 13.375h0.2v2.025h-0.2v-2.025zM17.6 13.375h0.2v2.025h-0.2v-2.025z"></path>
  <path fill="#00acd3" style="fill: var(--color11, #00acd3)" d="M15.55 10.375v2.45h2.45v-2.45h-2.45zM15.75 10.575h0.2v2.025h-0.2v-2.025zM16.125 10.575h0.2v2.025h-0.2v-2.025zM16.475 10.575h0.2v2.025h-0.2v-2.025zM16.85 10.575h0.2v2.025h-0.2v-2.025zM17.225 10.575h0.2v2.025h-0.2v-2.025zM17.6 10.575h0.2v2.025h-0.2v-2.025z"></path>
  <path fill="#23c2ee" style="fill: var(--color12, #23c2ee)" d="M15.55 7.55v2.45h2.45v-2.45h-2.45zM15.75 7.75h0.2v2.025h-0.2v-2.025zM16.125 7.75h0.2v2.025h-0.2v-2.025zM16.475 7.75h0.2v2.025h-0.2v-2.025zM16.85 7.75h0.2v2.025h-0.2v-2.025zM17.225 7.75h0.2v2.025h-0.2v-2.025zM17.6 7.75h0.2v2.025h-0.2v-2.025z"></path>
  <path fill="#00acd3" style="fill: var(--color11, #00acd3)" d="M18.375 13.175v2.45h2.45v-2.45h-2.45zM18.575 13.375h0.2v2.025h-0.2v-2.025zM18.925 13.375h0.2v2.025h-0.2v-2.025zM19.3 13.375h0.2v2.025h-0.2v-2.025zM19.675 13.375h0.2v2.025h-0.2v-2.025zM20.050 13.375h0.2v2.025h-0.2v-2.025zM20.425 13.375h0.2v2.025h-0.2v-2.025z"></path>
  <path fill="#d4eef1" style="fill: var(--color13, #d4eef1)" d="M12.2 19.575c0.375 0 0.675 0.3 0.675 0.675s-0.3 0.675-0.675 0.675c-0.375 0-0.675-0.3-0.675-0.675s0.3-0.675 0.675-0.675z"></path>
  <path fill="#3a4d54" style="fill: var(--color6, #3a4d54)" d="M12.2 19.775c0.050 0 0.125 0 0.175 0.025-0.050 0.025-0.1 0.1-0.1 0.175 0 0.1 0.1 0.2 0.2 0.2 0.075 0 0.15-0.050 0.175-0.1 0.025 0.050 0.025 0.125 0.025 0.175 0 0.275-0.225 0.475-0.475 0.475-0.275 0-0.475-0.225-0.475-0.475s0.2-0.475 0.475-0.475zM0.275 18.2h31.35c-0.675-0.175-2.15-0.4-1.925-1.3-1.25 1.425-4.225 1-5 0.3-0.85 1.225-5.75 0.75-6.075-0.2-1.050 1.25-4.325 1.25-5.375 0-0.35 0.95-5.25 1.425-6.075 0.2-0.75 0.7-3.75 1.125-5-0.3 0.275 0.875-1.225 1.125-1.9 1.3z"></path>
  <path fill="#bfdbe0" style="fill: var(--color14, #bfdbe0)" d="M14 24.45c-1.675-0.8-2.575-1.875-3.1-3.050-0.625 0.175-1.375 0.3-2.225 0.35-0.325 0.025-0.675 0.025-1.025 0.025-0.425 0-0.85 0-1.3-0.025 1.5 1.5 3.4 2.675 6.875 2.7h0.775z"></path>
  <path fill="#d4eef1" style="fill: var(--color13, #d4eef1)" d="M11.525 22.475c-0.225-0.325-0.45-0.7-0.625-1.075-0.625 0.175-1.375 0.3-2.225 0.35 0.575 0.3 1.425 0.6 2.85 0.725z"></path>
</symbol>
</svg>
